<svg xmlns="http://www.w3.org/2000/svg" viewBox="0 0 160.98 160.98"><defs><style>.cls-1{fill:#05526d;}.cls-2{fill:#09495a;}</style></defs><g id="Layer_2" data-name="Layer 2"><g id="bab"><path class="cls-1" d="M80.49,0A80.24,80.24,0,0,0,52.4,5l3.21,7.64a72.54,72.54,0,0,1,49.76,0L108.58,5A80.24,80.24,0,0,0,80.49,0Z"/><path class="cls-2" d="M0,80.49a80.33,80.33,0,0,0,5,28.1l7.64-3.22a72.54,72.54,0,0,1,0-49.76L5,52.4A80.24,80.24,0,0,0,0,80.49Z"/><path class="cls-1" d="M80.49,161a80.33,80.33,0,0,0,28.1-5l-3.22-7.64a72.54,72.54,0,0,1-49.76,0l-3.21,7.64A80.24,80.24,0,0,0,80.49,161Z"/><path class="cls-2" d="M161,80.49a80.24,80.24,0,0,0-5-28.09l-7.64,3.21a72.54,72.54,0,0,1,0,49.76l7.64,3.21A80.24,80.24,0,0,0,161,80.49Z"/></g></g></svg>