<svg xmlns="http://www.w3.org/2000/svg" viewBox="0 0 846.08 487.14"><defs><style>.cls-1,.cls-2,.cls-3{fill:none;stroke:#fff;stroke-miterlimit:10;stroke-width:6px;}.cls-2{stroke-dasharray:2.04 4.09 2.04 4.09;}.cls-3{stroke-dasharray:2.04 4.09 2.04 4.09 2.04 4.09;}</style></defs><g id="Layer_2" data-name="Layer 2"><g id="bab"><path class="cls-1" d="M77.64,1.72l-.57.82"/><path class="cls-2" d="M74.75,5.91q-2.88,4.22-5.65,8.51"/><path class="cls-3" d="M68,16.14A423.86,423.86,0,0,0,3.27,203.79"/><path class="cls-1" d="M3.08,205.83l-.09,1"/><path class="cls-1" d="M768.44,485.43c.19-.28.38-.55.58-.82"/><path class="cls-2" d="M771.33,481.24q2.88-4.22,5.66-8.52"/><path class="cls-3" d="M778.09,471a424,424,0,0,0,64.73-187.65"/><path class="cls-1" d="M843,281.32c0-.33.06-.67.08-1"/><path class="cls-1" d="M3,280.32l.09,1"/><path class="cls-2" d="M3.47,285.39c.34,3.38.72,6.77,1.14,10.15"/><path class="cls-3" d="M4.87,297.57a423.91,423.91,0,0,0,71,185.35"/><path class="cls-1" d="M77.07,484.61l.57.82"/><path class="cls-1" d="M843.09,206.82c0-.33-.05-.66-.08-1"/><path class="cls-2" d="M842.62,201.76c-.34-3.39-.72-6.77-1.15-10.16"/><path class="cls-3" d="M841.22,189.57a424.1,424.1,0,0,0-71-185.35"/><path class="cls-1" d="M769,2.54c-.2-.27-.39-.55-.58-.82"/></g></g></svg>