<svg id="Layer_1" data-name="Layer 1" xmlns="http://www.w3.org/2000/svg" width="800" height="800" viewBox="0 0 800 800"><defs><style>.cls-1{fill:#29a9e1;}.cls-2{fill:#07789e;}.cls-3{fill:#05526d;}.cls-4{fill:#023241;}.cls-5{fill:#0c222b;}</style></defs><title>Artboard 1</title><path class="cls-1" d="M707.1338,290.5224l.0942.06c-2.0439-5.6742-4.3186-11.2831-6.6954-16.8573-1.2053-2.8549-2.391-5.72-3.6764-8.532l-.0393.0178c-.0994-.2157-.2193-.4228-.3194-.6383l-28.3526-14.742c3.4555,6.4937,7.0963,13.8922,11.7129,23.3368l.0488.0313c12.7211,30.8494,15.1745,36.3548,23.1715,75.469L725,372.56A325.5531,325.5531,0,0,0,707.1338,290.5224Z"/><path class="cls-2" d="M632.0756,171.4589l.1109.0147c-4.2549-4.28-8.6913-8.4042-13.2054-12.4536-2.3012-2.0789-4.5891-4.1759-6.9444-6.1817l-.0281.0328c-.1814-.1536-.3778-.2908-.56-.4438l-31.9379-1.4c5.8811,4.4277,12.3133,9.5971,20.4962,16.2093l.0575.0078c24.5907,22.5928,29.1452,26.5474,52.9538,58.6234l29.9839,12.4064A326.1271,326.1271,0,0,0,632.0756,171.4589Z"/><path class="cls-3" d="M513.6388,95.2134l.1067-.0335c-5.6685-2.0844-11.4352-3.95-17.2409-5.7161-2.9658-.9135-5.9272-1.8488-8.911-2.6731l-.0117.0415c-.2294-.0627-.4654-.1041-.6952-.1661L457.3482,98.87c7.2048,1.5319,15.2231,3.5036,25.4389,6.0445l.0554-.0172C514.695,115,520.4971,116.6623,555.6558,135.69l32.4275-1.4045A326.8709,326.8709,0,0,0,513.6388,95.2134Z"/><path class="cls-4" d="M374.0166,76.0731l.0826-.0753c-6.02.5021-12.0364,1.2436-18.0458,2.0923-3.0747.4232-6.1546.8248-9.2079,1.3364l.007.0426c-.2344.04-.4659.102-.7.1427l-21.604,23.5207c7.1784-1.6509,15.28-3.2463,25.6146-5.253l.043-.039c33.1455-4.2806,39.108-5.2211,79.0287-2.808L458.029,80.08A327.2533,327.2533,0,0,0,374.0166,76.0731Z"/><path class="cls-5" d="M239.3721,117.6247l.0429-.1031c-5.2434,2.9945-10.3822,6.2045-15.4691,9.5088-2.6075,1.6806-5.2288,3.3437-7.7794,5.0955l.0244.0356c-.1956.1351-.3792.2889-.5744.4248l-9.6213,30.43c5.8068-4.5244,12.474-9.3881,20.9906-15.5662l.0224-.0535c28.2276-17.8617,33.2333-21.2294,70.4354-35.8826L317.21,85.8165A327,327,0,0,0,239.3721,117.6247Z"/><path class="cls-1" d="M85.6374,482.3174l-.0886-.0681c1.5407,5.83,3.317,11.6158,5.1979,17.3757.9515,2.9489,1.8825,5.9067,2.9175,8.8193l.0407-.0143c.08.2235.1816.44.2625.6637l26.9575,17.1524c-2.8753-6.77-5.8563-14.4567-9.6307-24.2669l-.0459-.0355c-9.979-31.8387-11.9423-37.5366-16.4937-77.1976L75.0024,399.0374A325.4933,325.4933,0,0,0,85.6374,482.3174Z"/><path class="cls-2" d="M150.0138,607.4576l-.1092-.0243c3.8649,4.6342,7.9244,9.1282,12.0677,13.5549,2.1109,2.2713,4.207,4.5593,6.3782,6.7624l.0309-.03c.1673.1688.351.3225.5189.4908l31.694,4.1736c-5.4721-4.9225-11.4285-10.6318-19.0028-17.9307l-.0567-.0128c-22.5244-24.6461-26.7162-28.9819-47.6335-63.007l-28.7865-14.9677A325.9782,325.9782,0,0,0,150.0138,607.4576Z"/><path class="cls-3" d="M261.3424,693.7164l-.1092.0241c5.4649,2.57,11.0467,4.93,16.6762,7.1943,2.8747,1.168,5.7432,2.3573,8.6437,3.4381l.0152-.04c.2231.0824.4546.1443.6781.226l30.4916-9.5874c-7.0436-2.1528-14.8592-4.8146-24.8142-8.2345l-.0568.0123c-30.8491-12.8352-36.4839-14.9964-69.8475-37.01l-32.4267-1.4219A326.7376,326.7376,0,0,0,261.3424,693.7164Z"/><path class="cls-4" d="M398.762,724.93l-.0888.0678c6.0409.0236,12.0992-.1917,18.16-.5144,3.1-.1541,6.2032-.2862,9.29-.53l-.0033-.043c.2371-.0194.4731-.0611.71-.0812l23.5756-21.5518c-7.2952,1.02-15.5055,1.9047-25.9758,3.0047l-.0462.0351c-33.3932,1.3808-39.4152,1.799-78.9732-4.0778l-29.9907,12.39A327.231,327.231,0,0,0,398.762,724.93Z"/><path class="cls-5" d="M536.5224,695.25l-.0518.099c5.4849-2.5269,10.8844-5.2777,16.24-8.1268,2.7443-1.4474,5.5009-2.8762,8.1948-4.3994l-.0212-.0376c.2066-.1176.4029-.2549.6092-.3732l12.2418-29.4777c-6.18,4.002-13.2463,8.2672-22.27,13.6809l-.027.0513c-29.68,15.3381-34.9606,18.2574-73.3,29.6185l-21.9348,23.8807A327.097,327.097,0,0,0,536.5224,695.25Z"/></svg>