<svg xmlns="http://www.w3.org/2000/svg" viewBox="0 0 1892.44 764.94"><defs><style>.cls-1,.cls-2{fill:#fff;}.cls-1{opacity:0.2;}.cls-2{opacity:0.3;}.cls-3,.cls-4{fill:none;}.cls-3{stroke:#fff;stroke-miterlimit:10;opacity:0.5;}</style></defs><g id="Layer_2" data-name="Layer 2"><g id="bab"><path class="cls-1" d="M83.87,122.88l2.41-2,41.09-33.79A839.46,839.46,0,0,1,165.7,0l15.15,7.72A826.35,826.35,0,0,0,118.39,171.2l9.36,14.65,8.24,12.9c-5.07,21.52-9.28,43.41-12.54,65.22-2.7,18.12-4.8,36.48-6.26,54.83l-19.5,20.77-6,6.36q-.82,18.26-.84,36.54a825.53,825.53,0,0,0,90,374.75l-15.15,7.72a839.46,839.46,0,0,1-38.33-87.11l-43.5-35.77a872.12,872.12,0,0,1,0-519.18Z"/><path class="cls-2" d="M30.57,291.8l20.22-18.73a889.92,889.92,0,0,0,0,218.8L30.57,473.14a909.67,909.67,0,0,1,0-181.34Z"/><path class="cls-3" d="M30.57,291.8l-30-41.32S17.85,137.9,34.68,100.63L88.14,59.89"/><path class="cls-3" d="M30.57,473.14l-30,41.32S17.85,627,34.68,664.31l53.46,40.74"/><path class="cls-1" d="M1808.41,122.88l-2.41-2-41.09-33.79A839.46,839.46,0,0,0,1726.58,0l-15.15,7.72a826.35,826.35,0,0,1,62.46,163.48l-9.36,14.65-8.24,12.9c5.07,21.52,9.28,43.41,12.54,65.22,2.7,18.12,4.8,36.48,6.26,54.83l19.5,20.77,6,6.36q.82,18.26.84,36.54a825.53,825.53,0,0,1-90,374.75l15.15,7.72a839.46,839.46,0,0,0,38.33-87.11l43.5-35.77a872.12,872.12,0,0,0,0-519.18Z"/><line class="cls-4" x1="1861.87" y1="291.8" x2="1841.65" y2="273.07"/><path class="cls-1" d="M1861.87,291.8l-20.22-18.73a889.92,889.92,0,0,1,0,218.8l20.22-18.73a909.67,909.67,0,0,0,0-181.34Z"/><line class="cls-4" x1="1841.65" y1="491.87" x2="1861.87" y2="473.14"/><path class="cls-3" d="M1861.87,291.8l30-41.32s-17.32-112.58-34.15-149.85l-53.47-40.74"/><path class="cls-3" d="M1861.87,473.14l30,41.32S1874.59,627,1857.76,664.31l-53.47,40.74"/></g></g></svg>