<svg id="Layer_1" data-name="Layer 1" xmlns="http://www.w3.org/2000/svg" width="800" height="800" viewBox="0 0 800 800"><defs><style>.cls-1{fill:#05526d;}.cls-2{fill:#09495a;}</style></defs><title>Artboard 1</title><path class="cls-1" d="M399.9987,320a79.81,79.81,0,0,0-27.9224,5.0085l3.1951,7.5927a72.0923,72.0923,0,0,1,49.4545,0l3.1951-7.5927A79.8094,79.8094,0,0,0,399.9987,320Z"/><path class="cls-2" d="M320,400.0013a79.81,79.81,0,0,0,5.0085,27.9224l7.5927-3.1951a72.0923,72.0923,0,0,1,0-49.4545l-7.5927-3.1951A79.8094,79.8094,0,0,0,320,400.0013Z"/><path class="cls-1" d="M400.0013,480a79.81,79.81,0,0,0,27.9224-5.0085l-3.1951-7.5927a72.0923,72.0923,0,0,1-49.4545,0l-3.1951,7.5927A79.8094,79.8094,0,0,0,400.0013,480Z"/><path class="cls-2" d="M480,399.9987a79.81,79.81,0,0,0-5.0085-27.9224l-7.5927,3.1951a72.0923,72.0923,0,0,1,0,49.4545l7.5927,3.1951A79.8094,79.8094,0,0,0,480,399.9987Z"/></svg>