<svg xmlns="http://www.w3.org/2000/svg" viewBox="0 0 650 650"><defs><style>.cls-1{fill:#29a9e1;}.cls-2{fill:#07789e;}.cls-3{fill:#05526d;}.cls-4{fill:#023241;}.cls-5{fill:#0c222b;}</style></defs><g id="Layer_2" data-name="Layer 2"><g id="bab"><path class="cls-1" d="M632.13,215.52l.1.06c-2.05-5.67-4.32-11.28-6.7-16.85-1.2-2.86-2.39-5.73-3.67-8.54l0,0c-.1-.21-.22-.42-.32-.64l-28.36-14.74c3.46,6.49,7.1,13.89,11.72,23.34l0,0c12.72,30.85,15.17,36.35,23.17,75.47L650,297.56A325.85,325.85,0,0,0,632.13,215.52Z"/><path class="cls-2" d="M557.08,96.46h.11C552.93,92.19,548.5,88.07,544,84c-2.3-2.08-4.59-4.18-6.94-6.18l0,0-.56-.44L504.51,76c5.88,4.42,12.31,9.59,20.5,16.21h0c24.6,22.6,29.15,26.55,53,58.63l30,12.4A326.21,326.21,0,0,0,557.08,96.46Z"/><path class="cls-3" d="M438.64,20.21l.11,0c-5.67-2.08-11.44-3.95-17.25-5.72-3-.91-5.92-1.85-8.91-2.67v0l-.69-.16-29.54,12.2c7.2,1.53,15.22,3.5,25.44,6h0C439.69,40,445.5,41.66,480.66,60.69l32.42-1.4A326.53,326.53,0,0,0,438.64,20.21Z"/><path class="cls-4" d="M299,1.07,299.1,1c-6,.5-12,1.24-18.05,2.09-3.07.42-6.15.82-9.2,1.34v0l-.7.14-21.6,23.52c7.18-1.65,15.28-3.24,25.61-5.25l0,0c33.14-4.28,39.1-5.22,79-2.81L383,5.08A327.17,327.17,0,0,0,299,1.07Z"/><path class="cls-5" d="M164.37,42.62l0-.1C159.17,45.52,154,48.73,149,52c-2.61,1.68-5.23,3.34-7.78,5.1l0,0-.57.43L131,88c5.8-4.53,12.47-9.39,21-15.57l0,0c28.23-17.86,33.23-21.23,70.43-35.89l19.77-25.69A326.92,326.92,0,0,0,164.37,42.62Z"/><path class="cls-1" d="M10.64,407.32l-.09-.07c1.54,5.83,3.32,11.62,5.2,17.37.95,2.95,1.88,5.91,2.91,8.82h0c.09.22.19.44.27.66l27,17.16c-2.87-6.77-5.85-14.46-9.63-24.27l0,0c-10-31.84-11.94-37.53-16.5-77.19L0,324A325.3,325.3,0,0,0,10.64,407.32Z"/><path class="cls-2" d="M75,532.46l-.11,0c3.87,4.64,7.93,9.13,12.07,13.56,2.11,2.27,4.21,4.56,6.38,6.76l0,0,.52.49,31.69,4.17c-5.47-4.92-11.42-10.63-19-17.93h-.06c-22.52-24.64-26.71-29-47.63-63l-28.79-15A326.3,326.3,0,0,0,75,532.46Z"/><path class="cls-3" d="M186.34,618.72l-.11,0c5.47,2.57,11.05,4.93,16.68,7.19,2.87,1.17,5.74,2.36,8.64,3.44l0,0,.68.23L242.74,620c-7.05-2.15-14.86-4.81-24.82-8.23h0c-30.85-12.84-36.49-15-69.85-37l-32.43-1.42A327.25,327.25,0,0,0,186.34,618.72Z"/><path class="cls-4" d="M323.76,649.93l-.09.07c6,0,12.1-.19,18.16-.52,3.1-.15,6.21-.28,9.29-.53v0l.71-.08,23.58-21.55c-7.3,1-15.51,1.9-26,3l-.05,0c-33.39,1.38-39.41,1.8-79-4.08l-30,12.39A327.35,327.35,0,0,0,323.76,649.93Z"/><path class="cls-5" d="M461.52,620.25l0,.1c5.49-2.53,10.89-5.28,16.24-8.13,2.75-1.44,5.5-2.87,8.2-4.4l0,0c.21-.12.41-.26.61-.38l12.25-29.48c-6.18,4-13.25,8.27-22.27,13.69l0,0c-29.68,15.33-35,18.25-73.3,29.62L381.2,645.17A327.37,327.37,0,0,0,461.52,620.25Z"/></g></g></svg>