<svg xmlns="http://www.w3.org/2000/svg" viewBox="0 0 437.89 437.88"><defs><style>.cls-1{font-size:18px;fill:#f1f1f2;font-family:NotoSansCJKkr-Thin-KSCpc-EUC-H, Noto Sans CJK KR;}</style></defs><g id="Layer_2" data-name="Layer 2"><g id="bab"><text class="cls-1" transform="matrix(1, -0.1, 0.1, 1, 186.51, 17.85)">맥</text><text class="cls-1" transform="translate(202.55 16.23) rotate(-1.88)">도</text><text class="cls-1" transform="translate(218.69 15.69) rotate(1.95)">날</text><text class="cls-1" transform="matrix(0.99, 0.1, -0.1, 0.99, 234.79, 16.22)">드</text><text class="cls-1" transform="translate(251 17.98) rotate(8.12)"> </text><text class="cls-1" transform="translate(254.8 18.52) rotate(9.02)"> </text><text class="cls-1" transform="translate(258.63 19.13) rotate(9.93)"> </text><text class="cls-1" transform="matrix(0.98, 0.19, -0.19, 0.98, 262.43, 19.8)"> </text><text class="cls-1" transform="translate(266.2 20.52) rotate(11.73)"> </text><text class="cls-1" transform="translate(269.98 21.3) rotate(12.63)"> </text><text class="cls-1" transform="matrix(0.97, 0.23, -0.23, 0.97, 273.75, 22.14)"> </text><text class="cls-1" transform="matrix(0.97, 0.25, -0.25, 0.97, 277.5, 23.04)"> </text><text class="cls-1" transform="translate(281.27 24.02) rotate(15.02)"> <tspan x="3.96" y="0"> </tspan><tspan x="7.92" y="0"> </tspan><tspan x="11.88" y="0"> </tspan><tspan x="15.84" y="0"> </tspan><tspan x="19.8" y="0"> </tspan></text><text class="cls-1" transform="matrix(0.83, -0.56, 0.56, 0.83, 96.76, 56.19)">규</text><text class="cls-1" transform="matrix(0.87, -0.5, 0.5, 0.87, 110.17, 47.2)">가</text><text class="cls-1" transform="translate(124.14 39.13) rotate(-26.15)">츠</text><text class="cls-1" transform="translate(31.76 139.09) rotate(-63.8)">키</text><text class="cls-1" transform="translate(38.88 124.59) rotate(-59.97)">야</text><text class="cls-1" transform="matrix(0.56, -0.83, 0.83, 0.56, 46.93, 110.62)">하</text><text class="cls-1" transform="translate(17.85 251.36) rotate(-95.71)">서</text><text class="cls-1" transform="matrix(-0.03, -1, 1, -0.03, 16.23, 235.33)">브</text><text class="cls-1" transform="matrix(0.03, -1, 1, 0.03, 15.69, 219.19)">웨</text><text class="cls-1" transform="matrix(0.1, -0.99, 0.99, 0.1, 16.22, 203.08)">이</text><text class="cls-1" transform="matrix(-0.61, -0.79, 0.79, -0.61, 66.05, 353.87)">고</text><text class="cls-1" transform="matrix(-0.56, -0.83, 0.83, -0.56, 56.19, 341.11)">등</text><text class="cls-1" transform="matrix(-0.5, -0.87, 0.87, -0.5, 47.2, 327.7)">어</text><text class="cls-1" transform="translate(39.13 313.74) rotate(-116.15)">밥</text><text class="cls-1" transform="matrix(-0.38, -0.92, 0.92, -0.38, 32.01, 299.26)">상</text><text class="cls-1" transform="translate(146.48 409.3) rotate(-155.71)">우</text><text class="cls-1" transform="translate(131.78 402.68) rotate(-151.88)">에</text><text class="cls-1" transform="translate(117.53 395.08) rotate(-148.05)">무</text><text class="cls-1" transform="matrix(-0.81, -0.58, 0.58, -0.81, 103.85, 386.57)">라</text><text class="cls-1" transform="translate(243.37 420.97) rotate(176.2)">향</text><text class="cls-1" transform="translate(227.26 422.05) rotate(-179.97)">미</text><text class="cls-1" transform="translate(211.14 422.06) rotate(-176.15)">락</text><text class="cls-1" transform="matrix(-0.83, 0.56, -0.56, -0.83, 341.11, 381.68)">쭈</text><text class="cls-1" transform="matrix(-0.87, 0.5, -0.5, -0.87, 327.7, 390.67)">꾸</text><text class="cls-1" transform="translate(313.74 398.74) rotate(153.85)">미</text><text class="cls-1" transform="translate(406.12 298.79) rotate(116.2)">순</text><text class="cls-1" transform="translate(399 313.28) rotate(120.03)">두</text><text class="cls-1" transform="matrix(-0.56, 0.83, -0.83, -0.56, 390.94, 327.25)">부</text><text class="cls-1" transform="matrix(0.07, 1, -1, 0.07, 420.97, 194.5)">설</text><text class="cls-1" transform="translate(422.05 210.61) rotate(90.03)">어</text><text class="cls-1" transform="translate(422.06 226.74) rotate(93.85)">정</text><text class="cls-1" transform="matrix(0.56, 0.83, -0.83, 0.56, 381.68, 96.76)">짜</text><text class="cls-1" transform="matrix(0.5, 0.87, -0.87, 0.5, 390.67, 110.17)">장</text><text class="cls-1" transform="translate(398.74 124.13) rotate(63.85)">면</text><text class="cls-1" transform="translate(298.79 31.76) rotate(26.2)">육</text><text class="cls-1" transform="translate(313.28 38.87) rotate(30.03)">개</text><text class="cls-1" transform="matrix(0.83, 0.56, -0.56, 0.83, 327.25, 46.93)">장</text></g></g></svg>