<svg id="Layer_1" data-name="Layer 1" xmlns="http://www.w3.org/2000/svg" width="800" height="800" viewBox="0 0 800 800"><defs><style>.cls-1{fill:#f1f1f2;}</style></defs><title>Artboard 1</title><path class="cls-1" d="M371.3188,186.39a1.19,1.19,0,0,1,.5235.9156l.4834,4.4384a1.28,1.28,0,0,1-.3408,1.0982,1.5724,1.5724,0,0,1-1.0274.4653l-2.9013.3159a1.4622,1.4622,0,0,1-1.09-.27,1.4149,1.4149,0,0,1-.4951-.9717l-.4658-4.2812a1.5331,1.5331,0,0,1,.2509-1.106,1.426,1.426,0,0,1,1.0557-.539l2.8135-.3062A1.7437,1.7437,0,0,1,371.3188,186.39Zm-.7265.8042a.9364.9364,0,0,0-.667-.122l-2.2022.24a.7794.7794,0,0,0-.5732.2568,1.0369,1.0369,0,0,0-.0869.6636l.4219,3.8794a.6483.6483,0,0,0,.2324.5054.8529.8529,0,0,0,.6113.0928l2.2188-.2417a.9333.9333,0,0,0,.5771-.2222.658.658,0,0,0,.1494-.5815l-.4277-3.9322A.7262.7262,0,0,0,370.5923,187.1943Zm8.458,7.85a1.3432,1.3432,0,0,1,.5684,1l.3134,2.8833a.5227.5227,0,0,1-.1308.4209.4922.4922,0,0,1-.3184.1582.5179.5179,0,0,1-.3633-.084.5486.5486,0,0,1-.2011-.3848l-.3077-2.831a.5586.5586,0,0,0-.205-.42.8285.8285,0,0,0-.5381-.083l-9.9629,1.084q-.5229.0571-.5733-.397c-.0322-.3032.125-.4736.4747-.5117l9.999-1.0879A1.8111,1.8111,0,0,1,379.05,195.0439Zm-1.1572-10.1469a.45.45,0,0,1,.5615.4516l.749,6.8853a.595.595,0,0,1-.1269.4556.4561.4561,0,0,1-.3164.1762.4771.4771,0,0,1-.3653-.102.6368.6368,0,0,1-.2051-.42l-.2314-2.1319-2.499.272.2324,2.1318a.6.6,0,0,1-.1279.4561.5093.5093,0,0,1-.6983.0761.6282.6282,0,0,1-.2051-.42l-.7548-6.9389q-.05-.4527.457-.5083.5244-.0564.5732.3955l.4248,3.8989,2.4991-.272-.4209-3.8618A.4434.4434,0,0,1,377.8931,184.897Z"/><path class="cls-1" d="M390.7319,192.7729a.5405.5405,0,0,1,.6866.0108.4693.4693,0,0,1,.1894.38l.1279,3.5664,6.3067-.2261a.5691.5691,0,0,1,.3906.1089.426.426,0,0,1,.0234.6323.5.5,0,0,1-.3642.1538l-13.79.4947a.3516.3516,0,0,1-.3037-.13.4373.4373,0,0,1-.0986-.313.5471.5471,0,0,1,.1289-.3213.5654.5654,0,0,1,.3818-.1367l6.3067-.2261-.1309-3.6367A.4212.4212,0,0,1,390.7319,192.7729Zm5.8623-8.2133a.4915.4915,0,0,1,.1514.3115.4388.4388,0,0,1-.0947.3022.339.339,0,0,1-.293.169l-9.6787.3467a.9051.9051,0,0,0-.5576.1606.6283.6283,0,0,0-.1572.4985l.1591,4.462a.61.61,0,0,0,.1758.4687.7543.7543,0,0,0,.55.1382l9.8555-.353a.3956.3956,0,0,1,.4717.4228.3715.3715,0,0,1-.4053.4541l-9.9785.3579a1.6642,1.6642,0,0,1-1.2451-.395,1.4876,1.4876,0,0,1-.4795-1.1089l-.15-4.1982a1.5954,1.5954,0,0,1,1.7109-1.82l9.6094-.3448A.4446.4446,0,0,1,396.5942,184.56Z"/><path class="cls-1" d="M402.8936,184.4355a.4769.4769,0,0,1,.3564-.1279.5159.5159,0,0,1,.3467.1362.47.47,0,0,1,.1611.3926l-.1611,4.3916a.9589.9589,0,0,0,.2363.7476,1.1252,1.1252,0,0,0,.8154.2939q1.6509.0609,3.4141-.0327a19.8766,19.8766,0,0,0,3.3389-.4048.5185.5185,0,0,1,.4384.0342.4393.4393,0,0,1,.2012.2886.4632.4632,0,0,1-.0488.35.636.636,0,0,1-.36.2505,17.7339,17.7339,0,0,1-3.4277.4013q-1.78.0754-3.9219-.0034a1.662,1.662,0,0,1-1.2968-.6108,1.9207,1.9207,0,0,1-.4258-1.3526l.1611-4.374A.4892.4892,0,0,1,402.8936,184.4355Zm10.791,8.858a1.2134,1.2134,0,0,1,.3847,1l-.0254.685a1.1488,1.1488,0,0,1-.4013.8824,1.4118,1.4118,0,0,1-1.03.3315l-7.7852-.2871a.6678.6678,0,0,0-.497.14.69.69,0,0,0-.14.4522l-.0234.6323a.4356.4356,0,0,0,.1269.374.7731.7731,0,0,0,.4532.1226l9.1523.3369a.5683.5683,0,0,1,.3819.1372.44.44,0,0,1,.1289.3213.4728.4728,0,0,1-.1348.3115.5.5,0,0,1-.374.127l-9.5039-.35a1.3215,1.3215,0,0,1-.9356-.3692,1.1247,1.1247,0,0,1-.3369-.8916l.0332-.896a1.3768,1.3768,0,0,1,.4053-1.0054,1.5719,1.5719,0,0,1,1.1719-.3437l7.5751.2793a.9012.9012,0,0,0,.4942-.0874.3689.3689,0,0,0,.206-.3442l.0176-.4747a.5264.5264,0,0,0-.1416-.4448.9139.9139,0,0,0-.539-.143l-8.627-.3179q-.5259-.019-.51-.4761.0338-.438.5606-.4189l8.7861.3237A1.725,1.725,0,0,1,413.6846,193.2935Zm2.5244-5.0254c.3037.0112.4512.1631.44.456a.4043.4043,0,0,1-.4736.44l-1.9151-.07-.0888,2.41a.4463.4463,0,0,1-.19.36.5661.5661,0,0,1-.7021-.0264.4679.4679,0,0,1-.1446-.373l.2452-6.6621q.0176-.4717.5273-.4532.5259.019.51.4912l-.1241,3.3575Z"/><path class="cls-1" d="M433.5547,198.95a.426.426,0,0,1-.0693.6294.4984.4984,0,0,1-.3819.1L419.5264,198.19q-.5244-.057-.4746-.5117.0483-.4365.5722-.3794l13.56,1.4873A.57.57,0,0,1,433.5547,198.95Zm-.0781-12.1924a.5006.5006,0,0,1,.1054.33.4414.4414,0,0,1-.1377.2856.3363.3363,0,0,1-.3134.1245l-9.628-1.0556a.9043.9043,0,0,0-.5752.0781.632.632,0,0,0-.2285.47l-.4863,4.4385a.6074.6074,0,0,0,.1055.4888.7581.7581,0,0,0,.5244.2168l9.8027,1.0747a.3965.3965,0,0,1,.4063.4868.3719.3719,0,0,1-.4668.3911L422.66,192.999a1.6634,1.6634,0,0,1-1.1758-.5713,1.4872,1.4872,0,0,1-.3145-1.166l.458-4.1763a1.5961,1.5961,0,0,1,1.9571-1.5537l9.5576,1.0484A.4421.4421,0,0,1,433.4766,186.7578Z"/><path class="cls-1" d="M283.2686,225.4126a8.6811,8.6811,0,0,0-1.0391-1.9717l-.9961-1.47a.7255.7255,0,0,0-.5293-.3423.8741.8741,0,0,0-.6279.1709l-8.0323,5.4434a.4121.4121,0,0,1-.6494-.1114.4048.4048,0,0,1,.1465-.63l8.0176-5.4341a2.1425,2.1425,0,0,1,1.4-.44,1.4431,1.4431,0,0,1,1.1074.6939l.9766,1.44a9.6226,9.6226,0,0,1,1.1377,2.1807,4.9975,4.9975,0,0,1,.291,1.65l-.9024.6113A5.3223,5.3223,0,0,0,283.2686,225.4126Zm2.873-.334a.4271.4271,0,0,1,.3555.5239.5012.5012,0,0,1-.2266.3233l-2.27,1.5386,3.3222,4.9038a.5358.5358,0,0,1-.5.8271.5451.5451,0,0,1-.3574-.2456l-3.3242-4.9033L278.5,231.1919l1.5781,2.3281a5.0453,5.0453,0,0,1,.8,1.9,4.0333,4.0333,0,0,1-.0586,1.8237.6391.6391,0,0,1-.2861.3633.4747.4747,0,0,1-.3691.0806.49.49,0,0,1-.3291-.2022.5048.5048,0,0,1-.042-.4384,3.7238,3.7238,0,0,0,.0722-1.43,4.0486,4.0486,0,0,0-.68-1.5347l-1.5585-2.2988-2.7354,1.8535a.38.38,0,0,1-.6211-.1314c-.1533-.249-.0908-.4687.1914-.66l11.291-7.6524A.5661.5661,0,0,1,286.1416,225.0786Z"/><path class="cls-1" d="M292.3516,213.86a1.5468,1.5468,0,0,1,1.0332.8046l1.0361,1.7974a9.1981,9.1981,0,0,1,1.3535,6.6055,7.3333,7.3333,0,0,1-3.3047,4.6855.4229.4229,0,0,1-.667-.1025q-.2505-.3633.1582-.6392a6.7744,6.7744,0,0,0,2.9229-4.2217,8.5355,8.5355,0,0,0-1.3486-5.8574l-1.0274-1.7822a.7234.7234,0,0,0-.4639-.3814.948.948,0,0,0-.6445.1485l-4.5234,2.6079a.42.42,0,0,1-.6543-.15q-.2344-.3714.1914-.6172l4.5078-2.5991A2.0041,2.0041,0,0,1,292.3516,213.86Zm8.914,1.6987a.3739.3739,0,0,1,.5772.1548.3822.3822,0,0,1-.1475.5918l-1.69.9746,3.206,5.5576a.4561.4561,0,0,1,.0323.4077.48.48,0,0,1-.2354.2979.5116.5116,0,0,1-.6963-.1871l-6.8476-11.8779a.4727.4727,0,0,1-.0479-.3989.57.57,0,0,1,.251-.2671.5772.5772,0,0,1,.3584-.084.4524.4524,0,0,1,.3369.2315l3.2129,5.5737Z"/><path class="cls-1" d="M315.0625,204.8643a.3964.3964,0,0,1-.1963.603l-4.6689,2.2578a3.63,3.63,0,0,0,2.86,1.9165,8.6377,8.6377,0,0,0,4.23-.5024.45.45,0,0,1,.6328.2988.5127.5127,0,0,1-.0293.3852.5853.5853,0,0,1-.3261.2945,9.5638,9.5638,0,0,1-4.087.5517,5.1365,5.1365,0,0,1-2.9658-1.1245,4.8194,4.8194,0,0,1-.95,2.999,10.0938,10.0938,0,0,1-2.9316,2.8624.7008.7008,0,0,1-.4805.0957.5143.5143,0,0,1-.32-.2159.4114.4114,0,0,1-.0967-.3632.5513.5513,0,0,1,.3037-.3809,8.1526,8.1526,0,0,0,2.9551-2.9331,3.6765,3.6765,0,0,0,.2891-3.44l-4.6367,2.2432a.403.403,0,0,1-.626-.2056.4193.4193,0,0,1,.2431-.6254l10.2071-4.9366A.3962.3962,0,0,1,315.0625,204.8643Zm-4.0811-1.17a.4255.4255,0,0,1,.2491.2315.3535.3535,0,0,1,.0351.3149.3993.3993,0,0,1-.2314.2881l-4.7315,2.2881q-.46.2226-.6582-.19t.26-.6333l4.6689-2.2583A.5606.5606,0,0,1,310.9814,203.6943Zm9.0723,9.066a.5086.5086,0,0,1,.2793.2163.5014.5014,0,0,1,.043.33.3486.3486,0,0,1-.2071.2574l-12.5175,6.0542a.3516.3516,0,0,1-.33.0039.4394.4394,0,0,1-.2168-.2471.5571.5571,0,0,1-.0107-.3462.5639.5639,0,0,1,.2939-.2788l12.2637-5.9316A.5711.5711,0,0,1,320.0537,212.76Z"/><path class="cls-1" d="M204.5962,309.0205a1.52,1.52,0,0,1,1.3135.0713l2.4521,1.1885a8.7226,8.7226,0,0,1,4.502,4.372,7.8893,7.8893,0,0,1-.0616,5.9678.4419.4419,0,0,1-.6171.3062q-.4425-.1356-.2754-.6021a7.1315,7.1315,0,0,0,.0293-5.3779,7.9667,7.9667,0,0,0-4.0625-3.7871l-2.3418-1.1348a.8279.8279,0,0,0-.6446-.0791.9675.9675,0,0,0-.4961.5405l-2.2246,4.5865a.6132.6132,0,0,1-.31.3188.4672.4672,0,0,1-.5693-.2764.5908.5908,0,0,1,.0654-.4174l2.2471-4.6348A1.992,1.992,0,0,1,204.5962,309.0205Zm3.1689,2.73a.4247.4247,0,0,1,.3379-.0913.349.349,0,0,1,.2617.185.5655.5655,0,0,1,.0752.4082,23.6387,23.6387,0,0,1-.7685,2.753,22.9274,22.9274,0,0,1-1.0742,2.78c-.1543.3164-.3672.4087-.6416.2754s-.3369-.3515-.1885-.6587a23.6057,23.6057,0,0,0,1.0371-2.6225,26.8007,26.8007,0,0,0,.7539-2.6421A.6159.6159,0,0,1,207.7651,311.751ZM219.13,310.19a.4711.4711,0,0,1-.0264.3765.5.5,0,0,1-.2881.2715.5486.5486,0,0,1-.4326-.0342l-12.3047-5.9678a.4655.4655,0,0,1-.2637-.3027.5939.5939,0,0,1,.0664-.3779.5672.5672,0,0,1,.2481-.2705.451.451,0,0,1,.4092.0029l12.3047,5.9678A.5149.5149,0,0,1,219.13,310.19Z"/><path class="cls-1" d="M214.521,293.3867a9.1314,9.1314,0,0,1,4.3984,1.3848,8.9418,8.9418,0,0,1,3.3477,3.0928,3.3145,3.3145,0,0,1,.209,3.5727,3.3769,3.3769,0,0,1-3.2266,1.648,8.9545,8.9545,0,0,1-4.3506-1.3589,9.1492,9.1492,0,0,1-3.3955-3.1187,3.3815,3.3815,0,0,1-.166-3.6108A3.319,3.319,0,0,1,214.521,293.3867Zm-2.0879,4.8433a10.5053,10.5053,0,0,0,6.6953,3.87,2.3206,2.3206,0,0,0,2.2354-3.8657,10.499,10.499,0,0,0-6.6963-3.87,2.327,2.327,0,0,0-2.2344,3.8657Zm7.2656-9.7251a.39.39,0,0,1,.6016-.1631.3971.3971,0,0,1,.1738.6123L219.5,290.64l3.1817,1.8389.9746-1.6855a.3885.3885,0,0,1,.6015-.1631.3966.3966,0,0,1,.1739.6113l-.9747,1.6865,3.6983,2.1377a.4729.4729,0,0,1,.2471.3457.4819.4819,0,0,1-.0547.375.4745.4745,0,0,1-.2969.2334.4921.4921,0,0,1-.4141-.0561L214.7808,289.11a.47.47,0,0,1-.24-.3218.636.636,0,0,1,.3516-.6084.4542.4542,0,0,1,.4082.0322l3.4238,1.9795Z"/><path class="cls-1" d="M222.978,276.8789a.395.395,0,0,1,.1211.6348l-2.6074,3.84a.42.42,0,0,1-.6543.15q-.3633-.2467-.0879-.6538l2.5879-3.81Q222.6143,276.6326,222.978,276.8789Zm2.7754-.2383a.397.397,0,0,1,.3408.0611.4085.4085,0,0,1,.1787.2695.4991.4991,0,0,1-.0917.3843l-4.7208,6.95c-.1845.2724-.3984.3252-.6406.1611s-.2715-.3828-.0859-.6543l4.7012-6.9214A.5649.5649,0,0,1,225.7534,276.6406Zm2.0352,3.1035a4.5275,4.5275,0,0,1,4.77,3.2393,4.2887,4.2887,0,0,1-3.4766,5.1182,4.5267,4.5267,0,0,1-4.77-3.2393,4.3321,4.3321,0,0,1,3.4766-5.1182Zm4.0713-4.9912a.3737.3737,0,0,1,.5869-.1123.38.38,0,0,1,.125.5957l-1.0957,1.6143,5.3066,3.6055a.4466.4466,0,0,1,.207.353.5075.5075,0,0,1-.3945.5815.4714.4714,0,0,1-.3945-.0771L224.8589,273.61a.4769.4769,0,0,1-.2168-.3389.642.642,0,0,1,.3955-.5815.4526.4526,0,0,1,.4043.0615l5.3213,3.6152Zm-6.6036,9.815a3.6821,3.6821,0,0,0,3.7374,2.5385,2.88,2.88,0,0,0,2.1718-1.351,2.8436,2.8436,0,0,0,.4356-2.4873,3.6867,3.6867,0,0,0-3.7373-2.5386,2.8636,2.8636,0,0,0-2.1377,1.3325A2.9008,2.9008,0,0,0,225.2563,284.5679Z"/><path class="cls-1" d="M198.6074,421.5908a.4509.4509,0,0,1,.1948.333.47.47,0,0,1-.1167.3838.5705.5705,0,0,1-.4013.2031l-7.0088.7618.5059,4.6484a.6379.6379,0,0,1-.0923.4521.3665.3665,0,0,1-.28.19.3969.3969,0,0,1-.33-.1055.6694.6694,0,0,1-.168-.4052l-.51-4.6836-5.627.6123a.5151.5151,0,0,1-.4189-.1143.5394.5394,0,0,1-.1621-.3535.5149.5149,0,0,1,.0839-.3623.4884.4884,0,0,1,.3829-.2188l13.5092-1.47A.5432.5432,0,0,1,198.6074,421.5908Zm-13.0537,9.7129a.5086.5086,0,0,1-.0757-.6982.4669.4669,0,0,1,.3653-.2168,14.1826,14.1826,0,0,1,2.2944-.0371q1.262.057,2.6455.26,1.5447-1.5644,3.0654-2.8623a36.4476,36.4476,0,0,1,3.03-2.3808.5354.5354,0,0,1,.4663-.1036.472.472,0,0,1,.3433.2286.5971.5971,0,0,1,.0786.3974.5236.5236,0,0,1-.2612.3643,33.4242,33.4242,0,0,0-2.833,2.0771q-1.6085,1.3066-2.8047,2.4971a21.2954,21.2954,0,0,1,6.6172,2.64.55.55,0,0,1,.2324.3466.4886.4886,0,0,1-.0864.3448.457.457,0,0,1-.2974.1914.645.645,0,0,1-.458-.1446,20.33,20.33,0,0,0-11.92-2.7871A.4929.4929,0,0,1,185.5537,431.3037Z"/><path class="cls-1" d="M183.5684,405.1045a.4976.4976,0,0,1-.1538-.3633.521.521,0,0,1,.11-.3564.47.47,0,0,1,.38-.19l5.7617-.206a1.3911,1.3911,0,0,1,1.1406.416,1.8285,1.8285,0,0,1,.4312,1.2334l.3071,8.5556a1.743,1.743,0,0,1-.3276,1.1719,1.3237,1.3237,0,0,1-1.0552.4951l-5.7793.208a.572.572,0,0,1-.4273-.1435.539.539,0,0,1-.1362-.3643.5119.5119,0,0,1,.11-.3554.4845.4845,0,0,1,.3974-.19l2.1607-.0771-.35-9.7676-2.1607.0771A.5087.5087,0,0,1,183.5684,405.1045Zm3.8339,9.8008,2.5123-.09a.8307.8307,0,0,0,.5908-.1972.9906.9906,0,0,0,.1518-.6739l-.2895-8.081a1.0368,1.0368,0,0,0-.1817-.6436.8316.8316,0,0,0-.6391-.1709l-2.4947.0889Zm8.4556-12.4043a.4259.4259,0,0,1,.6323-.0235.5.5,0,0,1,.1538.3643l.4893,13.6494q.019.5274-.4375.543c-.2925.0107-.4458-.1592-.458-.5108l-.4888-13.6318A.5694.5694,0,0,1,195.8579,402.501Z"/><path class="cls-1" d="M198.0938,389.2666a.5181.5181,0,0,1,.1093.3564.54.54,0,0,1-.1362.3643.5492.5492,0,0,1-.41.1436l-3.4077-.126-.08,2.1787c-.0131.3506-.166.5215-.4585.5107q-.4393.0015-.42-.5439l.08-2.1777-9.3809-.3457a.4688.4688,0,0,1-.3627-.1719.5391.5391,0,0,1-.1089-.3731.5124.5124,0,0,1,.1357-.3466.4013.4013,0,0,1,.3574-.1631l13.6851.5039A.5221.5221,0,0,1,198.0938,389.2666Zm.0942-3.0391a.4577.4577,0,0,1,.1279.3389.4775.4775,0,0,1-.1533.3457.5487.5487,0,0,1-.41.1436l-13.65-.503a.47.47,0,0,1-.3628-.1718.5169.5169,0,0,1-.11-.3555.4911.4911,0,0,1,.1352-.3291.4048.4048,0,0,1,.3574-.1631l13.6675.5039A.5192.5192,0,0,1,198.188,386.2275Zm-13.49,5.6768a2.6333,2.6333,0,0,1,2.0723-.873,2.58,2.58,0,0,1,1.9854,1.0224,4.7917,4.7917,0,0,1-.209,5.6738,2.5813,2.5813,0,0,1-2.0552.875,2.632,2.632,0,0,1-2.0024-1.0244,4.8657,4.8657,0,0,1,.2089-5.6738Zm.4341,4.9238a1.7966,1.7966,0,0,0,1.3975.7373,1.7278,1.7278,0,0,0,1.4131-.6338,3.0768,3.0768,0,0,0,.7265-2.0488,3.1181,3.1181,0,0,0-.5737-2.0967,1.7155,1.7155,0,0,0-1.3618-.7539,1.7812,1.7812,0,0,0-1.4487.65,3.1759,3.1759,0,0,0-.709,2.05A3.1332,3.1332,0,0,0,185.1323,396.8281Zm6.8257.4629q-.0139.8438-.0454,1.7041-.0175.4746-.4565.458t-.4219-.49q.0513-1.3872.0273-3.6045-.0066-2.6924-.1118-4.12-.0681-.548.3716-.55.4226-.0015.4907.5283.0358.4586.061,1.2158.0185.4586.0518,1.4619l.0117.6338,1.7564.0645a5.9854,5.9854,0,0,1,1.956.3886,4.46,4.46,0,0,1,1.4463.8448.5589.5589,0,0,1,.0772.7773.4182.4182,0,0,1-.6885.0625,4.2184,4.2184,0,0,0-2.74-1.0683l-1.7744-.0655Q191.9785,396.2544,191.958,397.291Z"/><path class="cls-1" d="M187.1816,373.1572a9.1334,9.1334,0,0,1,4.5826-.5049,8.94,8.94,0,0,1,4.3115,1.48,3.3168,3.3168,0,0,1,1.6313,3.1846,3.3773,3.3773,0,0,1-2.2885,2.8086,8.9558,8.9558,0,0,1-4.53.5117,9.1339,9.1339,0,0,1-4.3643-1.4873,3.3794,3.3794,0,0,1-1.6079-3.2354A3.3214,3.3214,0,0,1,187.1816,373.1572Zm12.6607-3.8633a.4747.4747,0,0,1,.1015.3643.499.499,0,0,1-.18.3516.5427.5427,0,0,1-.419.1132l-13.5942-1.49a.47.47,0,0,1-.35-.1982.5953.5953,0,0,1-.0645-.378.57.57,0,0,1,.1431-.3378.4493.4493,0,0,1,.3857-.1348l13.5948,1.4912A.5185.5185,0,0,1,199.8423,369.2939Zm-12.62,9.1377a10.4962,10.4962,0,0,0,7.6884.8428,2.3205,2.3205,0,0,0,.4869-4.4385,10.4977,10.4977,0,0,0-7.6885-.8427,2.3273,2.3273,0,0,0-.4868,4.4384Z"/><path class="cls-1" d="M230.4927,535.1152a1.6345,1.6345,0,0,1,.6831-1.2343l3.1045-2.45a8.2225,8.2225,0,0,1,2.3276-1.2784,5.7014,5.7014,0,0,1,2.106-.4531.483.483,0,0,1,.4712.5684.4529.4529,0,0,1-.5108.5156,5.0859,5.0859,0,0,0-1.6772.3154,7.4488,7.4488,0,0,0-2.0908,1.1817l-3.0352,2.3955a.79.79,0,0,0-.3394.6484,1.1968,1.1968,0,0,0,.3.749l5.8819,7.45a.4124.4124,0,0,1-.065.6563.4051.4051,0,0,1-.6391-.1006l-5.9688-7.5615A2.2281,2.2281,0,0,1,230.4927,535.1152Zm8.8481,1.7041a.5111.5111,0,0,1-.3149-.2.5181.5181,0,0,1-.1211-.3515.47.47,0,0,1,.1948-.378l4.2495-3.3544-4.5644-5.7813a.5736.5736,0,0,1-.1426-.38.4267.4267,0,0,1,.4966-.3916.4967.4967,0,0,1,.3393.2022l8.5508,10.831a.35.35,0,0,1,.0742.3213.4356.4356,0,0,1-.1933.2647.4594.4594,0,0,1-.6724-.1416l-3.2456-4.1114-4.2632,3.3653A.4387.4387,0,0,1,239.3408,536.8193Z"/><path class="cls-1" d="M229.2422,526.8125a1.4073,1.4073,0,0,1-.6558.9746l-1.6733,1.1348a1.3758,1.3758,0,0,1-1.0947.2324,1.7177,1.7177,0,0,1-.9815-.7588l-5.4931-8.1045a.4413.4413,0,0,1-.0806-.3691.4945.4945,0,0,1,.1831-.2949.4462.4462,0,0,1,.3061-.08.3415.3415,0,0,1,.2989.1582l5.4433,8.0332a.8687.8687,0,0,0,.4224.3711.532.532,0,0,0,.4629-.1l1.5713-1.0655a.6138.6138,0,0,0,.3042-.3974.7613.7613,0,0,0-.1753-.54l-5.5327-8.163a.4044.4044,0,0,1,.1225-.6348.38.38,0,0,1,.6148.0928l5.5815,8.2353A1.8424,1.8424,0,0,1,229.2422,526.8125Zm-4.8809-12.2148q.3633-.2477.64.16l7.7217,11.3936q.2665.3926-.1167.6113-.36.2213-.6451-.2l-7.6533-11.292Q224.0213,514.8487,224.3613,514.5977Zm3.73.6777a1.8906,1.8906,0,0,1,3.0405-2.0606,15.3432,15.3432,0,0,1,5.2769,7.7842,1.8973,1.8973,0,0,1-3.0415,2.0615,11.6027,11.6027,0,0,1-3.2544-3.4853A11.4668,11.4668,0,0,1,228.0913,515.2754Zm5.3462,6.8242q1,.7236,1.6846.26.6548-.4439.3388-1.6309a16.6587,16.6587,0,0,0-4.4282-6.5332q-.9954-.7485-1.65-.3047-.6832.4644-.3725,1.6758a17.2795,17.2795,0,0,0,4.4277,6.5332Z"/><path class="cls-1" d="M222.2124,497.2441a.4534.4534,0,0,1,.313.2256.4678.4678,0,0,1,.0469.3985.6805.6805,0,0,1-.3311.373l-5.9707,3.4424,1.4575,2.5283a.613.613,0,0,1,.0894.4356.5143.5143,0,0,1-.1953.2959.4644.4644,0,0,1-.335.0507.4962.4962,0,0,1-.2915-.2578l-1.5015-2.6035-4.98,2.8711a.5144.5144,0,0,1-.4292.0645.5411.5411,0,0,1-.291-.2588.5113.5113,0,0,1-.0693-.3653.4866.4866,0,0,1,.2622-.3535l11.7266-6.7627A.6784.6784,0,0,1,222.2124,497.2441Zm-7.915,10.5909a9.1236,9.1236,0,0,1,3.3984-3.1172,8.9389,8.9389,0,0,1,4.353-1.3526,3.3167,3.3167,0,0,1,3.1983,1.6055,3.3768,3.3768,0,0,1-.1866,3.6172,8.9582,8.9582,0,0,1-3.352,3.09,9.1467,9.1467,0,0,1-4.3989,1.38,3.38,3.38,0,0,1-3.21-1.6611A3.3178,3.3178,0,0,1,214.2974,507.835Zm3.15,4.2295a10.495,10.495,0,0,0,6.7-3.8633,2.3206,2.3206,0,0,0-2.23-3.8682,10.5,10.5,0,0,0-6.7,3.8643,2.3266,2.3266,0,0,0,2.23,3.8672Z"/><path class="cls-1" d="M204.44,484.6973a.3972.3972,0,0,1,.1962-.6035.4037.4037,0,0,1,.61.2128l.835,1.7247,2.1357-1.0333a.4638.4638,0,0,1,.4248-.01.51.51,0,0,1,.3066.6328.4884.4884,0,0,1-.2788.31l-6.3315,3.0625a.4346.4346,0,0,1-.6484-.253q-.2294-.4746.1958-.68l3.3886-1.6386Zm-.3565,7.9824a.5621.5621,0,0,1-.3061-.6328.4346.4346,0,0,1,.2631-.3028l4.795-2.3193a1.3068,1.3068,0,0,1,1.1484-.0478,1.591,1.591,0,0,1,.8066.82l1.9063,3.9394a1.5593,1.5593,0,0,1,.1426,1.1426,1.3136,1.3136,0,0,1-.75.832l-4.7471,2.2959a.5678.5678,0,0,1-.4487.041.481.481,0,0,1-.28-.2548.5174.5174,0,0,1-.0425-.3711.5447.5447,0,0,1,.3032-.3418l1.5669-.7578-2.35-4.8575-1.6147.78A.4634.4634,0,0,1,204.083,492.68Zm5.1807,3.6455,2.2309-1.0791a.6816.6816,0,0,0,.3985-.3887.7547.7547,0,0,0-.0952-.5586l-1.6685-3.4492a1,1,0,0,0-.418-.501.6155.6155,0,0,0-.5669.0391l-2.2309,1.0791Zm.665-11.1787a.5653.5653,0,0,1-.3061-.6328.47.47,0,0,1,.2719-.3272l3.2915-1.5918a1.1549,1.1549,0,0,1,.9439-.0664,1.3972,1.3972,0,0,1,.7827.7705l3.5537,7.3467a1.2431,1.2431,0,0,1,.08,1.0137,1.2661,1.2661,0,0,1-.6768.6982l-3.26,1.5772a.49.49,0,0,1-.4175.0254.564.564,0,0,1-.3062-.6329.4684.4684,0,0,1,.272-.3251l.981-.4756-3.8116-7.8809-.9809.4756A.4973.4973,0,0,1,209.9287,485.1465Zm6.0171,6.9892,1.2822-.62a.5962.5962,0,0,0,.334-.3174.6925.6925,0,0,0-.0786-.5263l-3.2393-6.6973a.75.75,0,0,0-.3559-.4121.5682.5682,0,0,0-.4566.0654l-1.2973.627Z"/><path class="cls-1" d="M197.582,467.8457a.476.476,0,0,1-.0151-.3711.5564.5564,0,0,1,.2422-.248.5128.5128,0,0,1,.333-.0186.4019.4019,0,0,1,.2471.2412l.7207,1.8135,3.1855-1.2656a.4672.4672,0,0,1,.4238.0205.5652.5652,0,0,1,.26.6543.5447.5447,0,0,1-.3164.2949l-7.5,2.9805a.4348.4348,0,0,1-.6284-.2979q-.1948-.4907.2285-.6592l3.5132-1.3964Zm.1231,10.7334a.5622.5622,0,0,1-.26-.6533.4875.4875,0,0,1,.3106-.3125,5.3482,5.3482,0,0,1,1.1464-.3047,9.3237,9.3237,0,0,1,1.0679-.1211,24.4216,24.4216,0,0,1,.96-3.1055,19.3,19.3,0,0,1,1.3086-2.5625.6993.6993,0,0,1,.372-.3.5023.5023,0,0,1,.3658.0625.4777.4777,0,0,1,.2182.3106.5864.5864,0,0,1-.0864.45,18.5017,18.5017,0,0,0-1.2813,2.4394,19.3821,19.3821,0,0,0-.9067,2.668,12,12,0,0,1,2.6983.459,12.9494,12.9494,0,0,1,2.749,1.2539.5731.5731,0,0,1,.2534.3535.3711.3711,0,0,1-.0689.3486.4571.4571,0,0,1-.311.2178.56.56,0,0,1-.4468-.125,8.9175,8.9175,0,0,0-4.2861-1.4561,7.41,7.41,0,0,0-3.3691.3741A.5141.5141,0,0,1,197.7051,478.5791Zm6.4726-10.1768a2.1564,2.1564,0,0,1,1.2744-1.9814,2.1034,2.1034,0,0,1,2.2383.5859,12.2648,12.2648,0,0,1,3.2,8.0537,2.1033,2.1033,0,0,1-1.2251,1.9629,2.1584,2.1584,0,0,1-2.2866-.5664,12.269,12.269,0,0,1-3.2007-8.0547Zm3.4864,7.1075a1.4764,1.4764,0,0,0,1.6181.5488c.49-.1934.74-.6914.7505-1.49a9.71,9.71,0,0,0-.8437-3.5039A9.489,9.489,0,0,0,207.41,467.97q-.8394-.8773-1.5752-.5849-.7677.3046-.7935,1.5254a13.0555,13.0555,0,0,0,2.6226,6.6Z"/><path class="cls-1" d="M312.6592,598.2363a2.4681,2.4681,0,0,1,1.8291-4.15,11.6576,11.6576,0,0,1,8.5088,3.752,2.4784,2.4784,0,0,1-1.83,4.1484,11.8569,11.8569,0,0,1-8.5083-3.75Zm8.0488,2.876a1.7134,1.7134,0,0,0,1.3257-3.0088,11.3116,11.3116,0,0,0-7.0933-3.1269,1.7064,1.7064,0,0,0-1.3257,3.0078,11.5758,11.5758,0,0,0,7.0933,3.1279Zm-7.3706-11.126a.4033.4033,0,0,1,.6021-.2343l5.8388,2.5742,1.8936-4.2949a.5229.5229,0,0,1,.3232-.2989.4683.4683,0,0,1,.3633.0059.5176.5176,0,0,1,.2715.2539.55.55,0,0,1-.0186.4346l-1.9,4.3115,5.84,2.5732a.3879.3879,0,0,1,.2173.5957.4333.4333,0,0,1-.6441.1963L313.61,590.5869A.4226.4226,0,0,1,313.3374,589.9863Z"/><path class="cls-1" d="M301.3516,577.4688a.46.46,0,0,1,.3613.0332.4782.4782,0,0,1,.2441.289.5453.5453,0,0,1-.05.43l-6.4009,12.0674a.47.47,0,0,1-.3129.251.5136.5136,0,0,1-.3682-.0557.4944.4944,0,0,1-.2373-.2646.4019.4019,0,0,1,.01-.3926l6.4091-12.0821A.5224.5224,0,0,1,301.3516,577.4688Zm-3.2071,14.6357a.5463.5463,0,0,1-.3838-.0635.46.46,0,0,1-.2617-.2588.4052.4052,0,0,1,.01-.3935l6.417-12.0957a.5255.5255,0,0,1,.3447-.2754.4835.4835,0,0,1,.377.041.5.5,0,0,1,.26.2969.5458.5458,0,0,1-.05.4316l-3.352,6.32,2.0957,1.1114a.5161.5161,0,0,1,.2837.33.3876.3876,0,0,1-.0161.33.4039.4039,0,0,1-.273.2129.52.52,0,0,1-.4072-.0566l-2.1123-1.1211-2.62,4.9384A.4367.4367,0,0,1,298.1445,592.1045Zm3.6866-.61a11.169,11.169,0,0,1,1.4257-4.3378,10.9419,10.9419,0,0,1,2.7676-3.5665,2.5441,2.5441,0,0,1,4.3784,2.3223,11.1383,11.1383,0,0,1-1.4165,4.2832,11.3945,11.3945,0,0,1-2.7759,3.6211,2.55,2.55,0,0,1-4.3793-2.3223Zm3.9677,1.4082a15.4327,15.4327,0,0,0,3.626-6.832q.2937-1.7548-.7-2.2812-.9792-.52-2.2822.6992a14.9289,14.9289,0,0,0-3.624,6.833q-.2711,1.7462.708,2.2656Q304.52,594.1143,305.7988,592.9023Z"/><path class="cls-1" d="M279.5,580.2051a1.2541,1.2541,0,0,1,.1846-1.0879l1.7475-2.7832a1.23,1.23,0,0,1,.8892-.625,1.7072,1.7072,0,0,1,1.2187.3076l7.3252,4.5967a1.7531,1.7531,0,0,1,.8164.9482,1.3589,1.3589,0,0,1-.2031,1.1182l-1.7,2.709a1.3769,1.3769,0,0,1-.87.6582,1.6988,1.6988,0,0,1-1.2666-.2969l-7.2363-4.541A1.9785,1.9785,0,0,1,279.5,580.2051Zm1.0557-.126a1.0162,1.0162,0,0,0,.4306.4365l6.9834,4.3819a.8909.8909,0,0,0,.59.1836.6613.6613,0,0,0,.3715-.3272l1.5879-2.5312a.7.7,0,0,0,.1377-.5157.9632.9632,0,0,0-.4521-.4707l-6.9688-4.372a.8943.8943,0,0,0-.5508-.1807.4889.4889,0,0,0-.3886.2549l-1.6631,2.65A.4992.4992,0,0,0,280.5557,580.0791Zm1.74-7.7686a.4042.4042,0,0,1,.63-.1445l5.4048,3.3916,2.4951-3.9756a.5183.5183,0,0,1,.3633-.249.46.46,0,0,1,.3584.0586.516.516,0,0,1,.2314.291.5448.5448,0,0,1-.08.4268l-2.5044,3.99,5.4048,3.3916a.3862.3862,0,0,1,.1289.62.4313.4313,0,0,1-.665.1016l-11.583-7.2695A.423.423,0,0,1,282.2959,572.3105Z"/><path class="cls-1" d="M266.79,563.6719a.3724.3724,0,0,1-.09-.5889.3794.3794,0,0,1,.6-.1045l1.5737,1.1533,3.794-5.1738a.4552.4552,0,0,1,.3613-.1934.5094.5094,0,0,1,.4756.8067l-8.1089,11.0566a.4734.4734,0,0,1-.3462.2041.6394.6394,0,0,1-.5664-.416.4525.4525,0,0,1,.0762-.4023l3.8047-5.1875Zm1.9844,8.9765a1.1872,1.1872,0,0,1,.2241-1.0781l2.0161-2.75a1.2782,1.2782,0,0,1,.93-.583,1.7743,1.7743,0,0,1,1.21.43l3.02,2.2139a.8038.8038,0,0,0,.61.2089,1.04,1.04,0,0,0,.5122-.4316l2.3286-3.1748a.9041.9041,0,0,0,.2354-.6777.9745.9745,0,0,0-.46-.62,21.4428,21.4428,0,0,0-3.3687-2.0351,13.5358,13.5358,0,0,0-3.0493-1.1035c-.3432-.0479-.4746-.2246-.3965-.5293a.4654.4654,0,0,1,.5933-.3946,14.3912,14.3912,0,0,1,3.5161,1.3594,24.9331,24.9331,0,0,1,3.4483,2.1358,1.6775,1.6775,0,0,1,.7714,1.1767,1.8141,1.8141,0,0,1-.4116,1.2451l-2.4536,3.3457a1.5162,1.5162,0,0,1-2.2754.337l-3.0469-2.2354a.9342.9342,0,0,0-.5654-.24c-.1426-.003-.291.1-.4433.3076l-1.7774,2.4238a.6059.6059,0,0,0-.1133.57,1.4622,1.4622,0,0,0,.5293.585l3.8135,2.7969q.44.3222.165.666-.2592.3529-.7133.0215l-4.0538-2.9737A2.0352,2.0352,0,0,1,268.7744,572.6484Z"/><path class="cls-1" d="M411.4336,614.915a.4516.4516,0,0,1-.3633-.1142.4981.4981,0,0,1-.164-.3067.4429.4429,0,0,1,.0849-.3046.389.389,0,0,1,.3067-.1817l1.96-.1406-.1777-2.4727-1.961.1416q-.4233.0307-.4746-.4238c-.0215-.3037.1026-.4658.3741-.4853l1.9951-.1446-.1162-1.6123a.52.52,0,0,1,.1464-.416.511.511,0,0,1,.3418-.1475.4727.4727,0,0,1,.36.1143.5417.5417,0,0,1,.1865.3916l.58,8.0313c.0225.3144-.1348.4843-.4746.51-.3506.0254-.5361-.1133-.5586-.416l-.1553-2.1592Zm2.4053-7.8935a1.9161,1.9161,0,0,1-.2647-3.6641,13.0911,13.0911,0,0,1,8.6436-.623,1.9155,1.9155,0,0,1,.2646,3.664,13.0782,13.0782,0,0,1-8.6435.6231Zm7.8291-1.1641q1.0737-.5185,1.0146-1.3242-.0556-.7719-1.19-1.1123a13.5187,13.5187,0,0,0-7.083.5107q-1.0914.5025-1.0362,1.2735.0587.8057,1.212,1.164a10.4286,10.4286,0,0,0,3.5566.2012A10.5351,10.5351,0,0,0,421.668,605.8574Zm-5.292,8.9649a.4394.4394,0,0,1-.1631-.3047.4679.4679,0,0,1,.1-.3242.5.5,0,0,1,.3584-.168l8.3809-.6045c.3271-.0234.5019.1162.5234.4209.0215.291-.1318.4492-.459.4727l-8.3457.6035A.5681.5681,0,0,1,416.376,614.8223Zm1.2549-2.3985a1.8068,1.8068,0,0,1-.2354-3.2617,5.5534,5.5534,0,0,1,3.0137-.9746,5.6294,5.6294,0,0,1,3.1572.5293,1.807,1.807,0,0,1,.2354,3.2617,6.8605,6.8605,0,0,1-6.1709.4453Zm5.3564-.9863a1.2514,1.2514,0,0,0,.6953-1.1074q-.0425-.5978-.8437-.9434a4.9979,4.9979,0,0,0-2.3643-.2881,4.8432,4.8432,0,0,0-2.2637.6221,1.17,1.17,0,0,0-.6992,1.0547,1.2528,1.2528,0,0,0,.8467.9961,4.9289,4.9289,0,0,0,2.33.29A5.0808,5.0808,0,0,0,422.9873,611.4375Zm-4.7344,4.9766c-.0332-.3028.1075-.4659.4239-.4883l4.6279-.334c.3271-.0234.5019.1152.5244.42q.0308.438-.46.4737l-4.5937.331C418.4492,616.8408,418.2744,616.7061,418.2529,616.4141Z"/><path class="cls-1" d="M394.6523,603.125a.4812.4812,0,0,1,.3526-.1406.4988.4988,0,0,1,.3681.1406.5512.5512,0,0,1,.1583.4053l-.0079,13.6758a.4694.4694,0,0,1-.1582.3681.6.6,0,0,1-.3691.1055.57.57,0,0,1-.3516-.1055.4525.4525,0,0,1-.1757-.3691l.0078-13.6758A.5228.5228,0,0,1,394.6523,603.125Zm5.1612,13.6436a1.4054,1.4054,0,0,1-.51-1.1426l.0059-9.5977a1.4971,1.4971,0,0,1,.4218-1.16,1.7979,1.7979,0,0,1,1.2491-.3858l4.0254.002a1.7751,1.7751,0,0,1,1.3.4052,1.4879,1.4879,0,0,1,.3867,1.125l-.0059,9.4922a1.6679,1.6679,0,0,1-.4219,1.1778,1.574,1.574,0,0,1-1.2128.4736l-3.9551-.0019A1.9722,1.9722,0,0,1,399.8135,616.7686Zm.7031-.6846a.96.96,0,0,0,.65.1758l3.7441.0019a.7156.7156,0,0,0,.58-.2109,1.0141,1.0141,0,0,0,.1582-.6153l.0059-9.3339a.7341.7341,0,0,0-.1758-.5625.85.85,0,0,0-.5977-.1582l-3.7441-.002a1.01,1.01,0,0,0-.6152.1406.6935.6935,0,0,0-.1934.5625l-.0059,9.4571A.7016.7016,0,0,0,400.5166,616.084Z"/><path class="cls-1" d="M374.9,612.2617c-.3037-.0234-.4453-.18-.4238-.4726a.4037.4037,0,0,1,.4892-.4219l1.9112.14.1728-2.3662a.4655.4655,0,0,1,.2041-.373.476.476,0,0,1,.36-.1153.4828.4828,0,0,1,.3408.1661.49.49,0,0,1,.1289.3964L377.57,616.23q-.0336.4731-.543.4346c-.3505-.0254-.5136-.1953-.4912-.51l.2754-3.7539Zm2.7617-5.4736a1.4768,1.4768,0,0,1-.3545-1.1709l.2285-3.1211a.5369.5369,0,0,1,.9063-.34.5467.5467,0,0,1,.1279.416l-.2285,3.12a.6164.6164,0,0,0,.123.4853.8012.8012,0,0,0,.5313.1973l9.03.66a.4118.4118,0,0,1,.4394.49c-.0107.3047-.1787.4453-.5058.4219l-9.0323-.6612A1.8974,1.8974,0,0,1,377.6621,606.7881Zm3.8359,9.4814a1.1744,1.1744,0,0,1-.3837-1.0156l.0869-1.1914a1.2818,1.2818,0,0,1,.4785-.9883,1.7753,1.7753,0,0,1,1.2539-.2773l3.8037.2773a.703.703,0,0,0,.5566-.1347.7256.7256,0,0,0,.1963-.5147l.083-1.14a.8748.8748,0,0,0-.1474-.627.7955.7955,0,0,0-.5987-.2559,31.5435,31.5435,0,0,0-4.0312-.0664,13.15,13.15,0,0,0-3.1914.5069.4819.4819,0,0,1-.4033-.0293.4969.4969,0,0,1-.2266-.28.5749.5749,0,0,1,.01-.37.4824.4824,0,0,1,.3-.2422,17.2009,17.2009,0,0,1,3.7539-.4834,39.225,39.225,0,0,1,3.9756.1152,1.71,1.71,0,0,1,1.2793.5694,1.5553,1.5553,0,0,1,.3213,1.1513l-.0938,1.2793a1.4351,1.4351,0,0,1-1.6914,1.4453l-3.8223-.2792a.9271.9271,0,0,0-.6064.0957.5942.5942,0,0,0-.2119.496l-.0567.7715a.6451.6451,0,0,0,.1719.541.9165.9165,0,0,0,.5488.1993l4.962.3632q.5435.04.4921.4942-.0321.438-.5927.3965L382.7,616.709A1.9669,1.9669,0,0,1,381.498,616.27Z"/><path class="cls-1" d="M513.0645,575.4238a.4039.4039,0,0,1,.121-.6347l5.2823-3.58-2.6338-3.8848a.5243.5243,0,0,1-.08-.4336.4529.4529,0,0,1,.1973-.3037.5173.5173,0,0,1,.36-.0957.55.55,0,0,1,.3574.2461l2.6436,3.8994,5.2813-3.58a.387.387,0,0,1,.62.1329.4315.4315,0,0,1-.1748.6494l-11.3213,7.6728A.4226.4226,0,0,1,513.0645,575.4238Zm5.2031,2.0371a3.7755,3.7755,0,0,0-2.3613-.1621.4907.4907,0,0,1-.4288-.0078.4.4,0,0,1-.2119-.28.42.42,0,0,1,.0313-.36.5825.5825,0,0,1,.3193-.2813,6.2089,6.2089,0,0,1,2.0137-.0683,4.6563,4.6563,0,0,1,1.9053.6191,4.5375,4.5375,0,0,1-.0479-1.8574,4.5907,4.5907,0,0,1,.9014-1.9277,4.9106,4.9106,0,0,1,2.15-.1192,4.1565,4.1565,0,0,1,1.6972.7188,5.2837,5.2837,0,0,1,0-1.9121,4.6021,4.6021,0,0,1,.8672-1.8828.6526.6526,0,0,1,.4121-.2374.5337.5337,0,0,1,.4.09.367.367,0,0,1,.1973.291.5482.5482,0,0,1-.2061.415,3.5375,3.5375,0,0,0-.7724,2.3086,5.66,5.66,0,0,0,1.11,2.9219l1.7608-1.1943a.4024.4024,0,0,1,.6494.1123q.246.3633-.1612.64l-3.9433,2.6729a.4052.4052,0,0,1-.64-.0977.4124.4124,0,0,1,.1358-.6445l1.3242-.8975a5.8265,5.8265,0,0,0-2.2773-2.1084,1.6576,1.6576,0,0,0-2.6924,1.8243,5.7092,5.7092,0,0,0,1.1006,2.9072l1.3085-.8877a.4212.4212,0,0,1,.6641.1016q.2461.3647-.1748.65l-3.9287,2.6631a.4059.4059,0,0,1-.6406-.0976.4114.4114,0,0,1,.1367-.6436l1.7607-1.1933A5.39,5.39,0,0,0,518.2676,577.4609Z"/><path class="cls-1" d="M498.3965,585.4756a.4261.4261,0,0,1-.3164-.5479.4936.4936,0,0,1,.249-.3066l5.4668-3.1523-2.8271-4.9034a.5269.5269,0,0,1-.0508-.4384.54.54,0,0,1,.5947-.3418.549.549,0,0,1,.3389.2714l2.8281,4.9024,5.5127-3.1777a.4207.4207,0,0,1,.6387.1582q.2358.372-.2061.6269l-11.832,6.8223A.5735.5735,0,0,1,498.3965,585.4756Zm3.293.4346a7.1236,7.1236,0,0,0,.8144,2.0459l.7725,1.34a.5747.5747,0,0,0,.39.3232.7665.7665,0,0,0,.5371-.1259l2.6192-1.5108a.5468.5468,0,0,1,.42-.08.4283.4283,0,0,1,.3164.5489.5688.5688,0,0,1-.2744.3l-2.8018,1.6162a1.6254,1.6254,0,0,1-1.1435.2324,1.3624,1.3624,0,0,1-.9317-.7012l-.8252-1.4306a6.9294,6.9294,0,0,1-.7959-2.1182,7.84,7.84,0,0,1-.1357-2.0312l.99-.5723A6.02,6.02,0,0,0,501.69,585.91Zm5.68-3.2754a6.6526,6.6526,0,0,0,.8164,2.1875l.6846,1.1884a.73.73,0,0,0,.4.378.7707.7707,0,0,0,.5361-.127l2.9688-1.7129a.5486.5486,0,0,1,.4209-.08.4426.4426,0,0,1,.28.205.4355.4355,0,0,1,.0361.3438.5725.5725,0,0,1-.2744.3l-3.03,1.7471a1.8386,1.8386,0,0,1-1.2588.2793,1.3687,1.3687,0,0,1-.9492-.7305l-.7549-1.31a7.0684,7.0684,0,0,1-.8349-2.2578,6.2644,6.2644,0,0,1-.0645-2.0127l.99-.57A7.3091,7.3091,0,0,0,507.3691,582.6348Z"/><path class="cls-1" d="M480.8584,586.5244a.4786.4786,0,0,1,.2559-.2793.4989.4989,0,0,1,.3925-.0342.542.542,0,0,1,.3184.295l5.9561,12.3115a.468.468,0,0,1,.0175.4014.5977.5977,0,0,1-.2871.2558.57.57,0,0,1-.3613.0576.4466.4466,0,0,1-.3193-.2558l-5.9551-12.3116A.52.52,0,0,1,480.8584,586.5244ZM491.45,596.5537a1.4018,1.4018,0,0,1-.9561-.8066l-4.18-8.64a1.4981,1.4981,0,0,1-.125-1.2285,1.7916,1.7916,0,0,1,.955-.8916l3.6241-1.7529a1.7814,1.7814,0,0,1,1.3466-.2022,1.4893,1.4893,0,0,1,.8379.8448l4.1328,8.5449a1.6667,1.6667,0,0,1,.1338,1.2441,1.5719,1.5719,0,0,1-.8847.9551l-3.5606,1.7227A1.9737,1.9737,0,0,1,491.45,596.5537Zm.334-.9228a.9655.9655,0,0,0,.6631-.125l3.3691-1.6309a.71.71,0,0,0,.4307-.4414,1.004,1.004,0,0,0-.125-.6231l-4.0635-8.4033a.7313.7313,0,0,0-.4043-.4287.8421.8421,0,0,0-.6064.1172l-3.3711,1.6309a1.0021,1.0021,0,0,0-.4922.3945.6919.6919,0,0,0,.0713.59l4.1171,8.5137A.7087.7087,0,0,0,491.7842,595.6309Z"/><path class="cls-1" d="M587.3633,483.0332a.9144.9144,0,0,0-.6621-.125,1.0178,1.0178,0,0,0-.4336.5322l-4.2422,8.7461a.3963.3963,0,0,1-.5938.22.4044.4044,0,0,1-.2128-.6114l4.41-9.0937a1.4306,1.4306,0,0,1,.8789-.8057,1.5337,1.5337,0,0,1,1.1729.12l1.7714.8594a.7065.7065,0,0,1,.3741.3574.4663.4663,0,0,1-.0186.4.452.452,0,0,1-.2959.2471.6727.6727,0,0,1-.5195-.0557Zm-.8789,13.1709a.3961.3961,0,0,1-.2188-.5947l2.792-5.7569-2.53-1.2265a.54.54,0,0,1-.3027-.3428.4493.4493,0,0,1,.0186-.3623.5172.5172,0,0,1,.2646-.2627.4945.4945,0,0,1,.416.0264l2.5782,1.2509,2.7929-5.7578a.3793.3793,0,0,1,.6026-.1963c.2588.14.3134.36.165.667l-5.9746,12.32A.4145.4145,0,0,1,586.4844,496.2041Zm10.0547-3.2891a.4422.4422,0,0,1-.6729.22,3.2428,3.2428,0,0,0-3.1006.4707,7.4306,7.4306,0,0,0-2.8242,3.0058.517.517,0,0,1-.3193.295.3788.3788,0,0,1-.3311-.044.5122.5122,0,0,1-.2148-.28.5814.5814,0,0,1,.05-.3847,10.2757,10.2757,0,0,1,2.8554-3.1485,4.918,4.918,0,0,1,2.7549-1.0078,4.8964,4.8964,0,0,1-.93-2.7959,9.971,9.971,0,0,1,.65-4.081.75.75,0,0,1,.3018-.3409.4888.4888,0,0,1,.3535-.0439.3778.3778,0,0,1,.2393.2324.4843.4843,0,0,1-.0352.4336,7.4347,7.4347,0,0,0-.5859,4.1113,3.24,3.24,0,0,0,1.5566,2.709A.4447.4447,0,0,1,596.5391,492.915Z"/><path class="cls-1" d="M576.3926,511.127a.4044.4044,0,0,1-.168-.625l3.1934-5.5245-4.0625-2.3486a.5226.5226,0,0,1-.2627-.3535.4651.4651,0,0,1,.0459-.3613.5114.5114,0,0,1,.2822-.2412.5475.5475,0,0,1,.4287.0644l4.0791,2.3574,3.1943-5.5244a.3862.3862,0,0,1,.6153-.15.4324.4324,0,0,1,.125.6612L577.0186,510.92A.4223.4223,0,0,1,576.3926,511.127Zm8.0722,2.8593a.44.44,0,0,1-.3437-.0371.4084.4084,0,0,1-.2227-.25.42.42,0,0,1,.0469-.3584l4.7852-8.2793a.9989.9989,0,0,0,.18-.6269.77.77,0,0,0-.3995-.4336l-2.4189-1.3994a.8273.8273,0,0,0-.6055-.1465.92.92,0,0,0-.4785.4756l-4.8379,8.37a.57.57,0,0,1-.3008.2734.4038.4038,0,0,1-.3437-.0371.4433.4433,0,0,1-.2061-.2412.4786.4786,0,0,1,.0537-.375l4.9708-8.5986a1.8175,1.8175,0,0,1,.9746-.878,1.3535,1.3535,0,0,1,1.1484.1573l2.6025,1.5039a1.5281,1.5281,0,0,1,.7842.9609,1.7808,1.7808,0,0,1-.2773,1.3223l-4.8116,8.3242A.5714.5714,0,0,1,584.4648,513.9863Z"/><path class="cls-1" d="M566.4434,525.9785a.4039.4039,0,0,1-.1211-.6357l3.584-5.2774-3.8819-2.6377a.521.521,0,0,1-.2353-.373.456.456,0,0,1,.0713-.3555.5175.5175,0,0,1,.2988-.2207.5485.5485,0,0,1,.4238.0957l3.8975,2.6465,3.5849-5.2773a.3877.3877,0,0,1,.625-.1075.4342.4342,0,0,1,.0772.67l-7.6846,11.3115A.4233.4233,0,0,1,566.4434,525.9785Zm8.3886,2.9151a.5.5,0,0,1-.09.3837.5154.5154,0,0,1-.3.2217.47.47,0,0,1-.419-.0713l-3.5332-2.4a1.3485,1.3485,0,0,1-.64-.9668,1.8,1.8,0,0,1,.376-1.2734l4.8691-7.1689a1.49,1.49,0,0,1,.9961-.6836,1.5087,1.5087,0,0,1,1.09.2724l3.49,2.3711a.5188.5188,0,0,1,.2451.3574.5.5,0,0,1-.0908.3848.4781.4781,0,0,1-.3145.2119.4659.4659,0,0,1-.4179-.0722l-1.1778-.7989-5.4922,8.084,1.1778.8A.4932.4932,0,0,1,574.832,528.8936Zm3.3555-9.7276-1.4238-.9678a.86.86,0,0,0-.6074-.2.8807.8807,0,0,0-.5508.4346l-4.543,6.6885a.8942.8942,0,0,0-.2051.6465.8272.8272,0,0,0,.4141.5156l1.4258.9678Z"/><path class="cls-1" d="M607.7207,388.1875a1.2154,1.2154,0,0,1-.9355.4736l-.7539.0537a1.1039,1.1039,0,0,1-.9043-.3222,1.5064,1.5064,0,0,1-.4063-.9922l-.6-8.3106a.76.76,0,0,0-.1777-.499.6239.6239,0,0,0-.43-.0918l-.6836.0489a.4105.4105,0,0,0-.3565.1845.7773.7773,0,0,0-.0722.4639l.6963,9.6426a.6413.6413,0,0,1-.0938.4121.5572.5572,0,0,1-.3057.1631.4709.4709,0,0,1-.3242-.1.4394.4394,0,0,1-.165-.3409l-.7227-10.0107a1.3826,1.3826,0,0,1,.2627-.9883,1.1792,1.1792,0,0,1,.8838-.4521l1.0176-.0733a1.1723,1.1723,0,0,1,.9375.3028,1.3617,1.3617,0,0,1,.4023.9228l.6016,8.3447a.8692.8692,0,0,0,.14.4659.3671.3671,0,0,0,.3643.1679l.4736-.0342a.5279.5279,0,0,0,.4268-.1894.8747.8747,0,0,0,.085-.5352l-.6612-9.1689q-.0381-.5259.417-.56c.292-.0322.45.1319.4766.4951l.6719,9.31A1.8193,1.8193,0,0,1,607.7207,388.1875Zm7.9434-8.8564a.4764.4764,0,0,1,.1494.3593.5369.5369,0,0,1-.1143.3789.56.56,0,0,1-.4248.2071,4.0026,4.0026,0,0,1-1.1348-.0948,9.1988,9.1988,0,0,1-1.2753-.331,18.2179,18.2179,0,0,1-1.5108,2.5058,23.98,23.98,0,0,1-1.8457,2.2657.6021.6021,0,0,1-.4267.1894.4315.4315,0,0,1-.3633-.1494.4725.4725,0,0,1-.1494-.3594.5538.5538,0,0,1,.1816-.4189,14.0585,14.0585,0,0,0,1.9551-2.2031,17.2092,17.2092,0,0,0,1.3086-2.1387,9.8941,9.8941,0,0,1-2.0235-1.1758,13.4637,13.4637,0,0,1-2.0791-1.9473.7732.7732,0,0,1-.1718-.4277.4586.4586,0,0,1,.1347-.3271.3546.3546,0,0,1,.3252-.1289.4957.4957,0,0,1,.3877.2363,10.637,10.637,0,0,0,3.6192,2.7695,6.3439,6.3439,0,0,0,3.0615.66A.4936.4936,0,0,1,615.6641,379.3311Zm-6.49,8.9814a.5168.5168,0,0,1-.1465-.3418.53.53,0,0,1,.0957-.3769.4616.4616,0,0,1,.3545-.1846l3.0528-.2207-.3194-4.4356a.606.606,0,0,1,.1094-.4306.4319.4319,0,0,1,.3047-.1631.467.467,0,0,1,.3252.1.5917.5917,0,0,1,.1514.3945l.3232,4.4707,2.6846-.1933a.4666.4666,0,0,1,.3779.1308.5417.5417,0,0,1,.1484.3594.5147.5147,0,0,1-.0966.3594.4036.4036,0,0,1-.336.2011l-6.6494.4795A.4506.4506,0,0,1,609.1738,388.3125Z"/><path class="cls-1" d="M602.3877,406.2813a.4568.4568,0,0,1-.1572-.3526.4669.4669,0,0,1,.1582-.3682.68.68,0,0,1,.4726-.1582l6.8926.004.002-2.918a.6114.6114,0,0,1,.1406-.4219.5127.5127,0,0,1,.3164-.1582.4678.4678,0,0,1,.3164.1231.5013.5013,0,0,1,.123.3691l-.0019,3.0059,5.748.0029a.5163.5163,0,0,1,.4043.1592.54.54,0,0,1,.1231.3691.5145.5145,0,0,1-.1231.3516.487.487,0,0,1-.4043.1748l-13.5371-.0069A.6816.6816,0,0,1,602.3877,406.2813Zm12.1494-5.2149a9.1208,9.1208,0,0,1-4.5,1,8.95,8.95,0,0,1-4.4473-1.0049,3.3166,3.3166,0,0,1-1.9668-2.9892,3.377,3.377,0,0,1,1.9708-3.04,8.95,8.95,0,0,1,4.4472-.999,9.142,9.142,0,0,1,4.5,1.0039,3.3809,3.3809,0,0,1,1.9492,3.043A3.32,3.32,0,0,1,614.5371,401.0664Zm-.6123-5.2383a10.4979,10.4979,0,0,0-7.7344-.0039,2.3206,2.3206,0,0,0-.0029,4.4649,10.4977,10.4977,0,0,0,7.7344.0039,2.327,2.327,0,0,0,.0029-4.4649Z"/><path class="cls-1" d="M605.792,422.9531a2.1314,2.1314,0,0,1-2.0127,1.2451,2.1,2.1,0,0,1-1.7559-1.52,9.6992,9.6992,0,0,1-.4687-4.44,9.832,9.832,0,0,1,1.1113-4.3428,2.1011,2.1011,0,0,1,1.959-1.2314,2.1321,2.1321,0,0,1,1.8105,1.5078,9.8415,9.8415,0,0,1,.4668,4.458A9.7148,9.7148,0,0,1,605.792,422.9531Zm-.0264-8.0566q-.3925-1.1558-1.2158-1.2168-.79-.0572-1.3271,1.0312a13.183,13.183,0,0,0-.5293,7.24q.372,1.1733,1.16,1.23.8247.06,1.3809-1.0439a13.6359,13.6359,0,0,0,.5312-7.2412Zm1.1563,9.2324a.4775.4775,0,0,1-.1143-.36.4976.4976,0,0,1,.167-.3584.5718.5718,0,0,1,.4326-.127l4.05.2969.2129-2.91a.6106.6106,0,0,1,.1709-.4111.5127.5127,0,0,1,.3272-.1348.4691.4691,0,0,1,.3066.1465.4988.4988,0,0,1,.0957.377l-.2187,2.998,3.0351.2217a.4865.4865,0,0,1,.3721.1865.4967.4967,0,0,1,.1123.3779.512.512,0,0,1-.1484.3418.4691.4691,0,0,1-.3975.1475l-7.9961-.5859A.539.539,0,0,1,606.9219,424.1289Zm8.31-2.5283a.3962.3962,0,0,1-.4238-.4717l.2539-3.4717-.543-.04a4.3811,4.3811,0,0,0-3.25,1.0664,7.8446,7.8446,0,0,0-1.957,2.6416.4749.4749,0,0,1-.3018.2773.5552.5552,0,0,1-.3837-.0625.5445.5445,0,0,1-.2393-.3349.6693.6693,0,0,1,.0693-.4707,9.8406,9.8406,0,0,1,1.7657-2.4444,4.6021,4.6021,0,0,1,2.1962-1.3554,5.52,5.52,0,0,1-2.083-1.6328,8.4145,8.4145,0,0,1-1.4345-2.8018.5758.5758,0,0,1,.0478-.4189.5592.5592,0,0,1,.2842-.2618.4607.4607,0,0,1,.3525-.0088.4783.4783,0,0,1,.26.3184,7.9414,7.9414,0,0,0,1.6475,3.0107,4.5085,4.5085,0,0,0,3.0673,1.4415l.5782.0419.2539-3.4716c.0234-.3272.1875-.4737.49-.44q.44.0322.4024.5225l-.5821,7.96A.3893.3893,0,0,1,615.2324,421.6006Z"/><path class="cls-1" d="M574.627,279.7866a13.4052,13.4052,0,0,0-3.2481,3.1358,15.3147,15.3147,0,0,0-1.8223,3.2949.5.5,0,0,1-.3242.3047.6208.6208,0,0,1-.43-.0069.5521.5521,0,0,1-.2988-.2851.4741.4741,0,0,1,.0059-.4287,18.2831,18.2831,0,0,1,1.2832-2.3985,11.4333,11.4333,0,0,1,1.4912-1.9677,11.1509,11.1509,0,0,1-2.66.8056,12.2314,12.2314,0,0,1-2.9179.3.63.63,0,0,1-.4268-.2207.5957.5957,0,0,1-.1631-.3984.4753.4753,0,0,1,.1475-.376.6431.6431,0,0,1,.5312-.126c.168-.0009.32.002.4531.0108.169-.001.3086-.0039.42-.0078a15.4864,15.4864,0,0,1,1.0566-1.9483,11.9771,11.9771,0,0,1,1.2168-1.5888,10.5683,10.5683,0,0,1-2.4473.6181,14.4343,14.4343,0,0,1-2.6757.1563.5978.5978,0,0,1-.3965-.1768.5273.5273,0,0,1-.124-.34.5117.5117,0,0,1,.1689-.3477.5791.5791,0,0,1,.4375-.1064,11.0561,11.0561,0,0,0,3.7207-.3985,13.2692,13.2692,0,0,0,4-1.8388l2.5889-1.7559-.9463-1.3965a.4041.4041,0,0,1,.1113-.65q.3648-.246.6406.16l2.0909,3.0859c.1845.2715.1542.49-.0879.6543a.4211.4211,0,0,1-.6543-.15l-.5723-.8457L572.25,276.28a12.9463,12.9463,0,0,0-2.9824,2.8066,9.8187,9.8187,0,0,0-1.3184,2.1895,12.4741,12.4741,0,0,0,2.4531-.5156,13.723,13.723,0,0,0,3.6172-1.7735l2.5918-1.7549-.5732-.8447a.4023.4023,0,0,1,.1123-.6484c.2422-.166.456-.1114.6406.16l1.8926,2.793a.4052.4052,0,0,1-.0967.6406.412.412,0,0,1-.6455-.1377l-.7685-1.1347Zm1.625,6.6914a.3723.3723,0,0,1-.1124.586.3814.3814,0,0,1-.6005-.1026l-1.0938-1.6152-5.3115,3.6a.4561.4561,0,0,1-.4043.0625.4811.4811,0,0,1-.3135-.2129.51.51,0,0,1,.1358-.708l11.35-7.6924a.4662.4662,0,0,1,.3935-.0762.6354.6354,0,0,1,.3946.5811.4486.4486,0,0,1-.2061.3535l-5.3262,3.6094Z"/><path class="cls-1" d="M581.0469,301.0239a2.1557,2.1557,0,0,1-.9746,2.1455,2.1035,2.1035,0,0,1-2.2989-.2568,12.2564,12.2564,0,0,1-4.3281-7.5078,2.1033,2.1033,0,0,1,.9287-2.1192,2.16,2.16,0,0,1,2.3448.2305,12.2642,12.2642,0,0,1,4.3281,7.5078Zm-4.4746-6.5293a1.4779,1.4779,0,0,0-1.6807-.31q-.6841.3955-.5283,1.583a9.702,9.702,0,0,0,1.3418,3.3467,9.4933,9.4933,0,0,0,2.206,2.8056q.9565.7456,1.6436.3506.7149-.4131.5644-1.623a9.8278,9.8278,0,0,0-1.3378-3.3076A9.9582,9.9582,0,0,0,576.5723,294.4946Zm11.6943.3985a.3958.3958,0,0,1-.6152-.1524l-1.7393-3.0146-.4707.2724a4.3745,4.3745,0,0,0-2.0918,2.7071,7.8336,7.8336,0,0,0-.1357,3.2832.48.48,0,0,1-.0948.4.5233.5233,0,0,1-.7392.0195.6722.6722,0,0,1-.2061-.4287,9.82,9.82,0,0,1,.0879-3.0137,4.602,4.602,0,0,1,1.0576-2.3535,5.5363,5.5363,0,0,1-2.6416-.1826,8.4029,8.4029,0,0,1-2.76-1.5137.5753.5753,0,0,1-.1953-.373.5536.5536,0,0,1,.0888-.375.4522.4522,0,0,1,.2862-.2061.4713.4713,0,0,1,.3925.1182,7.9785,7.9785,0,0,0,3.0547,1.5664,4.5175,4.5175,0,0,0,3.3477-.5293l.5019-.291-1.7382-3.0147a.4031.4031,0,0,1,.1582-.64q.3809-.22.6269.207l3.9863,6.9141A.3884.3884,0,0,1,588.2666,294.8931Zm-.6123,5.73a.4776.4776,0,0,1,.0693.3653.5485.5485,0,0,1-.2041.28.5161.5161,0,0,1-.3261.0674.4017.4017,0,0,1-.28-.2041l-.9746-1.69-2.97,1.7119a.4683.4683,0,0,1-.4229.041.5644.5644,0,0,1-.3516-.6084.5447.5447,0,0,1,.27-.3388l6.9922-4.0313a.4348.4348,0,0,1,.6641.2041c.1758.3057.1328.5332-.1309.6856l-3.2754,1.8877Z"/><path class="cls-1" d="M583.1719,310.1431a.9125.9125,0,0,0-.5078.4414,1.0607,1.0607,0,0,0,.1552.6865l4.125,8.5293a.3882.3882,0,0,1-.2041.5869.3965.3965,0,0,1-.6025-.1973l-4.2022-8.6865a1.872,1.872,0,0,1-.1953-1.292,1.4359,1.4359,0,0,1,.8457-.956l2.1055-1.0186a.5928.5928,0,0,1,.4649-.0478.5.5,0,0,1,.2871.27.4787.4787,0,0,1,.0254.3779.5592.5592,0,0,1-.3184.3486Zm12.6347-.6045a1.2362,1.2362,0,0,1-.6875.8408l-4.4785,2.166a1.3557,1.3557,0,0,1-1.1562.0713,1.688,1.688,0,0,1-.8535-.876l-1.8907-3.9082a1.3583,1.3583,0,0,1,.67-1.9258l4.3828-2.12a1.4665,1.4665,0,0,1,1.1259-.0957,1.5362,1.5362,0,0,1,.917.8457l1.8145,3.751A1.7389,1.7389,0,0,1,595.8066,309.5386Zm-.9394-.3662a.8973.8973,0,0,0-.1094-.67l-1.6289-3.3691a.7812.7812,0,0,0-.4355-.4551.961.961,0,0,0-.6387.1338l-4.082,1.9746q-.3488.1685-.3985.3877a.9276.9276,0,0,0,.1338.6l1.6377,3.3867a1.09,1.09,0,0,0,.3711.4844.6666.6666,0,0,0,.5752-.0644l4.1455-2.0039A.7724.7724,0,0,0,594.8672,309.1724Zm-5.5215,9.1738a.4789.4789,0,0,1-.2793-.2559.4971.4971,0,0,1-.0342-.3935.5737.5737,0,0,1,.3116-.3262l3.0214-1.4619-1.2851-2.6582a.61.61,0,0,1-.0576-.44.3846.3846,0,0,1,.208-.2579.4293.4293,0,0,1,.3379-.0263.6673.6673,0,0,1,.2949.3262l1.293,2.6748,2.0742-1.003-1.2715-2.6269a.7082.7082,0,0,1-.0723-.4727.5076.5076,0,0,1,.2168-.28.4616.4616,0,0,1,.3379-.0273.6.6,0,0,1,.2861.3105l1.31,2.7061,2.0117-.9727a.466.466,0,0,1,.4-.0175.5388.5388,0,0,1,.27.2793.51.51,0,0,1,.0429.3691.4016.4016,0,0,1-.2392.3106l-8.7207,4.2187A.5441.5441,0,0,1,589.3457,318.3462Z"/><path class="cls-1" d="M492.5771,216.1025a1.3888,1.3888,0,0,1-.0771,1.209l-1.1621,2.3946a.5391.5391,0,0,1-.3418.3017.4809.4809,0,0,1-.377-.0283.5026.5026,0,0,1-.2714-.2871.5664.5664,0,0,1,.041-.4463l1.1445-2.3623a.6.6,0,0,0,.0645-.4942.869.869,0,0,0-.4532-.3945l-8.8252-4.2793a.4123.4123,0,0,1-.2275-.6191c.1172-.2676.3232-.3311.6182-.1875l8.874,4.3027A1.9644,1.9644,0,0,1,492.5771,216.1025Zm3.18-2.2851a.3888.3888,0,0,1-.5879.2031l-2.5293-1.2266-.791,1.629a.54.54,0,0,1-.3418.3027.475.475,0,0,1-.3779-.0274.5121.5121,0,0,1-.2627-.2636.4928.4928,0,0,1,.0264-.417l.8125-1.6768-5.0449-2.4472-.2754.57a2.1,2.1,0,0,1-.5743.6982,3.87,3.87,0,0,1-.8193.4815.4448.4448,0,0,1-.3935-.0352.4776.4776,0,0,1-.2471-.2949.573.573,0,0,1-.0361-.3692.4343.4343,0,0,1,.3027-.2636,1.79,1.79,0,0,0,.5166-.2569,1.33,1.33,0,0,0,.3017-.4209l.2754-.5683-2.9726-1.4424q-.4278-.2065-.2041-.5869.2081-.3882.666-.166l12.32,5.9746A.4151.4151,0,0,1,495.7568,213.8174Zm.2959-6.6944a1.7608,1.7608,0,0,1-1.5117,3.1163,16.48,16.48,0,0,1-8.4609-4.1036,1.7648,1.7648,0,0,1,1.5107-3.1162,16.8748,16.8748,0,0,1,8.4619,4.1035Zm-8.0351-3.2119c-.8018-.1172-1.3145.0528-1.5342.5059q-.3135.6474.5693,1.4863a19.2828,19.2828,0,0,0,7.0694,3.4287q1.2363.189,1.5508-.459.33-.68-.585-1.5341a20.1208,20.1208,0,0,0-7.07-3.4278Z"/><path class="cls-1" d="M506.9893,213.2881a1.3711,1.3711,0,0,1-.0987,1.2617l-1.0918,1.8867a10.7127,10.7127,0,0,1-4.6152,4.6836,5.6449,5.6449,0,0,1-4.9434-.0566.5643.5643,0,0,1-.2968-.293.443.443,0,0,1,.0127-.3379.4286.4286,0,0,1,.2587-.2363.5335.5335,0,0,1,.4141.0566,4.8479,4.8479,0,0,0,4.3086-.0068,10.3518,10.3518,0,0,0,3.9189-4.252l1.0479-1.81a.7626.7626,0,0,0,.0879-.6807,1.0825,1.0825,0,0,0-.5186-.5429l-3.1806-1.8379a.4208.4208,0,0,1-.1973-.6426c.1357-.26.3457-.3066.6309-.1426l3.2871,1.8994A2.13,2.13,0,0,1,506.9893,213.2881ZM513.37,215.88q.441.2549.2129.65l-6.8721,11.8867a.4523.4523,0,0,1-.3359.2305.4584.4584,0,0,1-.36-.045.5082.5082,0,0,1-.2421-.2832.4683.4683,0,0,1,.0478-.3984l3.1836-5.5088-2.1455-1.2412-3.167,5.48a.5062.5062,0,0,1-.7207.1924.5114.5114,0,0,1-.2422-.2813.55.55,0,0,1,.0645-.43l6.8633-11.8711q.2285-.3954.67-.1406c.3047.1758.38.3965.2285.6592l-3.2647,5.6465,2.1455,1.2412L512.7,216.02Q512.9273,215.6255,513.37,215.88Z"/><path class="cls-1" d="M521.8516,233.6045a2.1574,2.1574,0,0,1,.0586,2.3555,2.1056,2.1056,0,0,1-2.1817.7714,12.2683,12.2683,0,0,1-7.1689-4.871,2.1017,2.1017,0,0,1-.0869-2.3106,2.1536,2.1536,0,0,1,2.2109-.8144,12.265,12.265,0,0,1,7.168,4.8691Zm-6.8741-3.9258a1.477,1.477,0,0,0-1.6474.4541q-.4438.6534.2148,1.6533a9.7251,9.7251,0,0,0,2.6651,2.4278,9.5075,9.5075,0,0,0,3.21,1.5634q1.1865.2535,1.6319-.4a1.484,1.484,0,0,0-.1993-1.7081,9.8224,9.8224,0,0,0-2.6464-2.3925A9.9311,9.9311,0,0,0,514.9775,229.6787Zm10.6993-4.7383a.3966.3966,0,0,1-.62.1309l-2.88-1.9561-.3057.45a4.382,4.382,0,0,0-.7022,3.3487,7.8686,7.8686,0,0,0,1.31,3.0146.48.48,0,0,1,.09.4.5625.5625,0,0,1-.2461.3008.5486.5486,0,0,1-.41.04.6711.6711,0,0,1-.373-.2959,9.8362,9.8362,0,0,1-1.2344-2.75,4.6167,4.6167,0,0,1-.0762-2.58,5.5213,5.5213,0,0,1-2.4551.9883,8.4411,8.4411,0,0,1-3.1435-.16.5777.5777,0,0,1-.3389-.251.55.55,0,0,1-.084-.376.4623.4623,0,0,1,.168-.3105.4774.4774,0,0,1,.4053-.0645,7.9656,7.9656,0,0,0,3.4316.0781,4.51,4.51,0,0,0,2.7813-1.9355l.3261-.4805-2.88-1.9551a.4022.4022,0,0,1-.1348-.6445q.2461-.3633.6533-.0879l6.6025,4.4844A.39.39,0,0,1,525.6768,224.94Zm1.9462,5.4229a.4774.4774,0,0,1,.2227.3.5593.5593,0,0,1-.0615.34.5191.5191,0,0,1-.2647.2032.4047.4047,0,0,1-.3418-.0606l-1.6142-1.0976-1.9258,2.8359a.4706.4706,0,0,1-.3623.2217.52.52,0,0,1-.36-.0967.5114.5114,0,0,1-.2216-.2988.55.55,0,0,1,.0957-.4229l4.5351-6.6748a.4353.4353,0,0,1,.6885-.1055q.435.296.18.6719l-2.125,3.1279Z"/></svg>