<svg xmlns="http://www.w3.org/2000/svg" viewBox="0 0 50 46.67"><defs><style>.cls-1{fill:#cbcbca;}</style></defs><g id="Layer_2" data-name="Layer 2"><g id="bab"><circle class="cls-1" cx="25" cy="21.65" r="4.11"/><path class="cls-1" d="M25,29.62a7.9,7.9,0,0,1-4-1.07L12.5,43.3a24.87,24.87,0,0,0,25,0L29,28.55A7.9,7.9,0,0,1,25,29.62Z"/><path class="cls-1" d="M21,14.75,12.5,0A24.86,24.86,0,0,0,0,21.65H17A8,8,0,0,1,21,14.75Z"/><path class="cls-1" d="M33,21.65H50A24.86,24.86,0,0,0,37.5,0L29,14.75A8,8,0,0,1,33,21.65Z"/></g></g></svg>