<svg id="Layer_1" data-name="Layer 1" xmlns="http://www.w3.org/2000/svg" width="800" height="800" viewBox="0 0 800 800"><defs><style>.cls-1{fill:#cbcbca;}</style></defs><title>Artboard 1</title><circle class="cls-1" cx="400" cy="398.3157" r="4.1101"/><path class="cls-1" d="M400,406.2856a7.9222,7.9222,0,0,1-3.9818-1.073L387.5,419.9663a24.8761,24.8761,0,0,0,25,0l-8.5181-14.7538A7.9213,7.9213,0,0,1,400,406.2856Z"/><path class="cls-1" d="M396.018,391.4189,387.5,376.6651A24.8771,24.8771,0,0,0,375,398.3156h17.03A7.96,7.96,0,0,1,396.018,391.4189Z"/><path class="cls-1" d="M407.97,398.3156H425a24.8771,24.8771,0,0,0-12.5-21.6505l-8.5181,14.7538A7.96,7.96,0,0,1,407.97,398.3156Z"/></svg>