<svg id="Layer_1" data-name="Layer 1" xmlns="http://www.w3.org/2000/svg" width="1000" height="800" viewBox="0 0 1000 800"><defs><style>.cls-1,.cls-2,.cls-3{fill:none;stroke:#05526d;stroke-miterlimit:10;stroke-width:6px;}.cls-2{stroke-dasharray:1.9461 3.8922 1.9461 3.8922;}.cls-3{stroke-dasharray:1.9461 3.8922 1.9461 3.8922 1.9461 3.8922;}</style></defs><title>out1</title><path class="cls-1" d="M828.9124,169.693q.2872.41.5734.8211"/><path class="cls-2" d="M831.6958,173.72q2.7426,4.02,5.3854,8.1035"/><path class="cls-3" d="M838.1344,183.46a401.5252,401.5252,0,0,1,61.5977,178.6077"/><path class="cls-1" d="M899.9115,364.007q.0448.4987.0885.9975"/><path class="cls-1" d="M900,434.9955q-.0436.4987-.0885.9975"/><path class="cls-2" d="M899.5436,439.87q-.4833,4.8426-1.0833,9.6693"/><path class="cls-3" d="M898.2156,451.4689a401.5263,401.5263,0,0,1-67.62,176.4157"/><path class="cls-1" d="M829.4858,629.4859q-.2862.4109-.5734.821"/><path class="cls-1" d="M171.0876,169.693q-.2873.41-.5734.8211"/><path class="cls-2" d="M168.3042,173.72q-2.7426,4.02-5.3854,8.1035"/><path class="cls-3" d="M161.8656,183.46a401.5284,401.5284,0,0,0-61.5977,178.6077"/><path class="cls-1" d="M100.0885,364.007q-.0448.4987-.0885.9975"/><path class="cls-1" d="M100,434.9955q.0436.4987.0885.9975"/><path class="cls-2" d="M100.4564,439.87q.4831,4.8426,1.0833,9.6693"/><path class="cls-3" d="M101.7844,451.4689a401.53,401.53,0,0,0,67.62,176.4157"/><path class="cls-1" d="M170.5142,629.4859q.2862.4109.5734.821"/></svg>