<svg id="Layer_1" data-name="Layer 1" xmlns="http://www.w3.org/2000/svg" width="1100" height="800" viewBox="0 0 1100 800"><defs><style>.cls-1,.cls-2,.cls-3,.cls-4,.cls-5,.cls-6,.cls-7,.cls-8{fill:none;stroke:#fff;stroke-miterlimit:10;}.cls-1,.cls-2,.cls-3{stroke-width:6px;}.cls-2{stroke-dasharray:2.0444 4.0888 2.0444 4.0888;}.cls-3{stroke-dasharray:2.0444 4.0888 2.0444 4.0888 2.0444 4.0888;}.cls-4{stroke-width:4px;}.cls-5,.cls-6,.cls-7{stroke-width:2px;}.cls-6{stroke-dasharray:0.9975 0.9975 0.9975 0.9975;}.cls-7{stroke-dasharray:0.9975 0.9975 0.9975 0.9975 0.9975 0.9975;}</style></defs><title>Artboard 1</title><path class="cls-1" d="M204.5982,158.1471q-.2863.41-.5718.82"/><path class="cls-2" d="M201.7076,162.3345q-2.8728,4.2156-5.6517,8.514"/><path class="cls-3" d="M194.9483,172.5711A423.9994,423.9994,0,0,0,130.225,360.2184"/><path class="cls-1" d="M130.0357,362.2547q-.0452.4978-.0889.9956"/><path class="cls-1" d="M895.4018,641.8531q.2864-.4095.5718-.82"/><path class="cls-2" d="M898.2925,637.6656q2.8726-4.2154,5.6516-8.5139"/><path class="cls-3" d="M905.0517,627.4291A423.9959,423.9959,0,0,0,969.775,439.7817"/><path class="cls-1" d="M969.9643,437.7455q.0452-.4979.0889-.9956"/><path class="cls-1" d="M129.9468,436.75q.0438.4977.0889.9956"/><path class="cls-2" d="M130.424,441.8158q.5092,5.0759,1.1433,10.1549"/><path class="cls-3" d="M131.8261,454.0021a424,424,0,0,0,71.0364,185.35"/><path class="cls-1" d="M204.0264,641.0333q.2854.41.5718.82"/><path class="cls-1" d="M970.0532,363.25q-.0438-.4977-.0889-.9956"/><path class="cls-2" d="M969.576,358.1844q-.5091-5.0758-1.1433-10.1549"/><path class="cls-3" d="M968.174,345.998a423.9984,423.9984,0,0,0-71.0365-185.35"/><path class="cls-1" d="M895.9736,158.9669q-.2854-.41-.5718-.82"/><path class="cls-4" d="M119.41,600.7875a476.1169,476.1169,0,0,0,94.6964,135.1062"/><path class="cls-4" d="M980.59,199.2127A476.1169,476.1169,0,0,0,885.8935,64.1065"/><path class="cls-4" d="M980.59,600.7875a476.1169,476.1169,0,0,1-94.6964,135.1062"/><path class="cls-4" d="M119.41,199.2127A476.1169,476.1169,0,0,1,214.1065,64.1065"/><path class="cls-5" d="M1003.7573,611.5907q.1058-.2263.2113-.4528"/><path class="cls-6" d="M1004.3888,610.2336q.7332-1.5819,1.4556-3.17"/><path class="cls-7" d="M1006.0508,606.61a501.5124,501.5124,0,0,0-1.87-417.2917"/><path class="cls-5" d="M1003.9686,188.8623q-.1056-.2264-.2113-.4528"/><path class="cls-5" d="M96.2427,188.41q-.1057.2263-.2113.4528"/><path class="cls-6" d="M95.6112,189.7666q-.733,1.5821-1.4556,3.17"/><path class="cls-7" d="M93.9492,193.3906a501.5134,501.5134,0,0,0,1.87,417.2917"/><path class="cls-5" d="M96.0314,611.1379q.1056.2264.2113.4528"/><path class="cls-8" d="M233.2748,83.275a447.917,447.917,0,0,0,0,633.45"/><path class="cls-8" d="M866.7252,716.7252a447.9175,447.9175,0,0,0,0-633.45"/></svg>