<svg xmlns="http://www.w3.org/2000/svg" viewBox="0 0 501.09 501.09"><defs><style>.cls-1{fill:#05526d;}.cls-1,.cls-2{stroke:#231f20;stroke-miterlimit:10;}.cls-2{fill:#09495a;}</style></defs><g id="Layer_2" data-name="Layer 2"><g id="bab"><path class="cls-1" d="M411.5,207.41,492,185.84a248.61,248.61,0,0,0-64.62-112l-58.94,58.93A165.83,165.83,0,0,1,411.5,207.41Z"/><path class="cls-2" d="M368.39,132.7l58.92-58.93a248.61,248.61,0,0,0-112-64.68l-21.57,80.5A167.42,167.42,0,0,1,368.39,132.7Z"/><path class="cls-1" d="M293.68,89.56,315.25,9.07A248.61,248.61,0,0,0,185.93,9L207.5,89.56A166,166,0,0,1,293.68,89.56Z"/><path class="cls-2" d="M207.41,89.59,185.84,9.07a248.63,248.63,0,0,0-112,64.63l58.93,58.93A165.81,165.81,0,0,1,207.41,89.59Z"/><path class="cls-1" d="M132.7,132.7,73.77,73.77a248.64,248.64,0,0,0-64.68,112l80.5,21.57A167.32,167.32,0,0,1,132.7,132.7Z"/><path class="cls-2" d="M89.56,207.41,9.07,185.84A248.61,248.61,0,0,0,9,315.16l80.52-21.58A166,166,0,0,1,89.56,207.41Z"/><path class="cls-1" d="M89.59,293.67,9.07,315.25a248.65,248.65,0,0,0,64.63,112l58.93-58.93A165.76,165.76,0,0,1,89.59,293.67Z"/><path class="cls-2" d="M132.7,368.39,73.77,427.31a248.66,248.66,0,0,0,112,64.69l21.57-80.5A167.5,167.5,0,0,1,132.7,368.39Z"/><path class="cls-1" d="M207.41,411.52,185.84,492a248.71,248.71,0,0,0,129.32,0l-21.58-80.53A165.85,165.85,0,0,1,207.41,411.52Z"/><path class="cls-2" d="M293.67,411.5,315.25,492a248.74,248.74,0,0,0,112-64.63l-58.93-58.94A165.77,165.77,0,0,1,293.67,411.5Z"/><path class="cls-1" d="M368.39,368.39l58.92,58.92a248.63,248.63,0,0,0,64.69-112l-80.5-21.57A167.61,167.61,0,0,1,368.39,368.39Z"/><path class="cls-2" d="M411.52,293.68,492,315.25a248.71,248.71,0,0,0,0-129.32L411.52,207.5A165.89,165.89,0,0,1,411.52,293.68Z"/></g></g></svg>