<svg id="Layer_1" data-name="Layer 1" xmlns="http://www.w3.org/2000/svg" width="800" height="800" viewBox="0 0 800 800"><defs><style>.cls-1{fill:#05526d;}.cls-1,.cls-2{stroke:#231f20;stroke-miterlimit:10;}.cls-2{fill:#09495a;}</style></defs><title>Artboard 1</title><path class="cls-1" d="M560.9294,356.8792l80.5015-21.57A248.6014,248.6014,0,0,0,576.8121,223.32l-58.9209,58.921A165.8341,165.8341,0,0,1,560.9294,356.8792Z"/><path class="cls-2" d="M517.8247,282.1754l58.915-58.9149a248.6013,248.6013,0,0,0-111.9563-64.6763l-21.567,80.4893A167.4177,167.4177,0,0,1,517.8247,282.1754Z"/><path class="cls-1" d="M443.1268,239.0486l21.5644-80.4794a248.6034,248.6034,0,0,0-129.2951-.0332l21.573,80.5118A165.8289,165.8289,0,0,1,443.1268,239.0486Z"/><path class="cls-2" d="M356.8791,239.0707l-21.57-80.5015a248.6025,248.6025,0,0,0-111.99,64.6188l58.921,58.921A165.8346,165.8346,0,0,1,356.8791,239.0707Z"/><path class="cls-1" d="M282.1752,282.1754,223.26,223.2605a248.6033,248.6033,0,0,0-64.6763,111.9562l80.4895,21.5671A167.4169,167.4169,0,0,1,282.1752,282.1754Z"/><path class="cls-2" d="M239.0484,356.8733,158.569,335.3089a248.6012,248.6012,0,0,0-.0331,129.2951l80.5117-21.573A165.83,165.83,0,0,1,239.0484,356.8733Z"/><path class="cls-1" d="M239.0705,443.1211l-80.5015,21.57a248.6027,248.6027,0,0,0,64.6188,111.9894l58.921-58.9209A165.8346,165.8346,0,0,1,239.0705,443.1211Z"/><path class="cls-2" d="M282.1752,517.8249,223.26,576.74a248.6033,248.6033,0,0,0,111.9562,64.6763l21.5671-80.4894A167.418,167.418,0,0,1,282.1752,517.8249Z"/><path class="cls-1" d="M356.8731,560.9517l-21.5644,80.4794a248.6027,248.6027,0,0,0,129.2952.0332l-21.5731-80.5117A165.83,165.83,0,0,1,356.8731,560.9517Z"/><path class="cls-2" d="M443.1209,560.93l21.57,80.5016a248.6038,248.6038,0,0,0,111.9894-64.6189l-58.921-58.921A165.8342,165.8342,0,0,1,443.1209,560.93Z"/><path class="cls-1" d="M517.8247,517.8249,576.74,576.74a248.6011,248.6011,0,0,0,64.6762-111.9563l-80.4893-21.567A167.4182,167.4182,0,0,1,517.8247,517.8249Z"/><path class="cls-2" d="M560.9515,443.1271l80.4794,21.5643a248.6023,248.6023,0,0,0,.0332-129.2951l-80.5117,21.5731A165.83,165.83,0,0,1,560.9515,443.1271Z"/></svg>