<svg id="레이어_1" data-name="레이어 1" xmlns="http://www.w3.org/2000/svg" width="53" height="53" viewBox="0 0 53 53"><defs><style>.cls-1{stroke:#fff;stroke-miterlimit:10;}.cls-2{fill:#fff;}</style></defs><title>무제-1</title><circle class="cls-1" cx="26.5" cy="26.5" r="26"/><path class="cls-2" d="M30.63,55.9543a25.93,25.93,0,0,0,19.1233-8.3866A10.8107,10.8107,0,0,0,46.4457,45.67c-1.8229-.5952-3.7574-1.4881-5.5431-2.0461a3.8935,3.8935,0,0,1-2.4554-1.4137,7.6125,7.6125,0,0,1-1.4137-2.6786s-.26-.2232-.4092,0-.26-2.1949-.26-2.1949a29.626,29.626,0,0,0,1.7113-5.4315s.8557.26,1.0417,0a11.3593,11.3593,0,0,0,1.2648-2.6786,7.6679,7.6679,0,0,0,.4093-2.6042c-.1116-.558-.0744-.5208-.4465-.8928s-1.116.6324-1.116.6324a30.2289,30.2289,0,0,0,1.0044-5.878s.326-5.8407-5.4775-7.366-8.2217-.4836-8.2217-.4836c-1.8974.186-3.3854,2.6041-3.3854,2.6041a2.4038,2.4038,0,0,0-1.4509.9673c-.4837.7812-.5953,2.4925-.67,4.2782a30.2268,30.2268,0,0,0,1.0045,5.878s-.7441-1.0045-1.1161-.6324-.3348.3348-.4464.8928a7.67,7.67,0,0,0,.4092,2.6042,11.3587,11.3587,0,0,0,1.2649,2.6786c.186.26,1.0417,0,1.0417,0a29.626,29.626,0,0,0,1.7113,5.4315s-.1116,2.4181-.2605,2.1949-.4092,0-.4092,0a7.6107,7.6107,0,0,1-1.4137,2.6786,3.8929,3.8929,0,0,1-2.4553,1.4137c-1.7857.558-3.72,1.4509-5.5432,2.0461a10.8088,10.8088,0,0,0-3.3078,1.8974A25.9294,25.9294,0,0,0,30.63,55.9543Z" transform="translate(-4.1303 -3.4543)"/></svg>