<svg id="Layer_1" data-name="Layer 1" xmlns="http://www.w3.org/2000/svg" width="53" height="53" viewBox="0 0 53 53"><circle cx="26.5" cy="26.5" r="26" style="fill:none;stroke:#fff;stroke-miterlimit:10"/><path d="M26,52a25.91,25.91,0,0,0,19.12-8.39,11,11,0,0,0-3.3-1.89c-1.83-.6-3.76-1.49-5.55-2a3.92,3.92,0,0,1-2.45-1.41,7.6,7.6,0,0,1-1.42-2.68s-.26-.23-.41,0-.26-2.2-.26-2.2A29.37,29.37,0,0,0,33.44,28s.86.26,1.05,0a11.51,11.51,0,0,0,1.26-2.68,7.68,7.68,0,0,0,.41-2.6c-.11-.56-.07-.52-.45-.89s-1.11.63-1.11.63a29.85,29.85,0,0,0,1-5.88s.33-5.84-5.47-7.37-8.23-.48-8.23-.48c-1.89.19-3.38,2.6-3.38,2.6a2.41,2.41,0,0,0-1.45,1c-.49.78-.6,2.49-.67,4.28a29.85,29.85,0,0,0,1,5.88s-.74-1-1.11-.63-.34.33-.45.89a7.68,7.68,0,0,0,.41,2.6A11.51,11.51,0,0,0,17.51,28c.19.26,1,0,1,0a29.37,29.37,0,0,0,1.71,5.43s-.12,2.42-.26,2.2-.41,0-.41,0a7.6,7.6,0,0,1-1.42,2.68,3.92,3.92,0,0,1-2.45,1.41c-1.79.56-3.72,1.45-5.55,2a11,11,0,0,0-3.3,1.89A25.91,25.91,0,0,0,26,52Z" transform="translate(0.5 0.5)" style="fill:#fff"/></svg>