<svg xmlns="http://www.w3.org/2000/svg" width="430" height="80" viewBox="0 0 430 80"><defs><style>.cls-1{fill:#fff;}</style></defs><title>center-img</title><g id="레이어_2" data-name="레이어 2"><g id="head"><path class="cls-1" d="M417.491,0a10.65,10.65,0,0,0-8.7091,4.0984L374.455,58.774a10.65,10.65,0,0,1-8.7091,4.0984H63.9748a10.65,10.65,0,0,1-8.709-4.0984L20.9388,4.0984A10.65,10.65,0,0,0,12.23,0H0A10.65,10.65,0,0,1,8.7091,4.0984L55.2658,75.9016A10.65,10.65,0,0,0,63.9748,80H365.7459a10.65,10.65,0,0,0,8.7091-4.0984L421.2909,4.0984A10.65,10.65,0,0,1,430,0Z"/></g></g></svg>