<svg xmlns="http://www.w3.org/2000/svg" xmlns:xlink="http://www.w3.org/1999/xlink" width="95.6969" height="95.697" viewBox="0 0 95.6969 95.697"><defs><style>.cls-1{fill:#00a9ce;}.cls-2{fill:url(#linear-gradient);}.cls-3{fill:url(#linear-gradient-2);}.cls-4{fill:url(#linear-gradient-3);}.cls-5{fill:url(#linear-gradient-4);}.cls-6{fill:url(#linear-gradient-5);}.cls-7{fill:url(#linear-gradient-6);}.cls-8{fill:url(#linear-gradient-7);}.cls-9{fill:url(#linear-gradient-8);}</style><linearGradient id="linear-gradient" x1="52.9935" y1="15.6597" x2="90.3895" y2="15.6597" gradientUnits="userSpaceOnUse"><stop offset="0" stop-color="#c8e4f0"/><stop offset="1" stop-color="#009fca"/></linearGradient><linearGradient id="linear-gradient-2" x1="71.4157" y1="9.4544" x2="93.681" y2="40.5946" xlink:href="#linear-gradient"/><linearGradient id="linear-gradient-3" x1="-40.35" y1="1664.9067" x2="-2.954" y2="1664.9067" gradientTransform="translate(1744.9439 93.3436) rotate(90)" xlink:href="#linear-gradient"/><linearGradient id="linear-gradient-4" x1="-21.9279" y1="1658.7014" x2="0.3374" y2="1689.8416" gradientTransform="translate(1744.9439 93.3436) rotate(90)" xlink:href="#linear-gradient"/><linearGradient id="linear-gradient-5" x1="1374.6464" y1="1992.6399" x2="1412.0424" y2="1992.6399" gradientTransform="translate(1417.3498 2072.6771) rotate(180)" xlink:href="#linear-gradient"/><linearGradient id="linear-gradient-6" x1="1393.0686" y1="1986.4345" x2="1415.3339" y2="2017.5748" gradientTransform="translate(1417.3498 2072.6771) rotate(180)" xlink:href="#linear-gradient"/><linearGradient id="linear-gradient-7" x1="3.6949" y1="24.0055" x2="27.6246" y2="24.0055" xlink:href="#linear-gradient"/><linearGradient id="linear-gradient-8" x1="70.9157" y1="9.9544" x2="93.181" y2="41.0946" gradientTransform="translate(-0.5 95.1969) rotate(-90)" xlink:href="#linear-gradient"/></defs><title>Asset 2</title><g id="Layer_2" data-name="Layer 2"><g id="Layer_1-2" data-name="Layer 1"><path class="cls-1" d="M17.1947,37.139c0-8.6392,5.2553-13.8223,11.9506-13.8223a10.21,10.21,0,0,1,7.523,3.3477L34.4007,29.328a7.0475,7.0475,0,0,0-5.1836-2.3755c-4.5713,0-7.7392,3.8154-7.7392,10.0425,0,6.2993,2.9516,10.1508,7.6313,10.1508a7.721,7.721,0,0,0,5.8672-2.8076l2.2319,2.6275a10.4606,10.4606,0,0,1-8.2431,3.8154C22.306,50.7811,17.1947,45.8138,17.1947,37.139Z"/><path class="cls-1" d="M39.0106,46.8939l2.4477-2.88a10.2717,10.2717,0,0,0,7.0552,3.1318c3.2041,0,5.0029-1.5117,5.0029-3.7436,0-2.4116-1.7988-3.1675-4.247-4.2476L45.598,37.5711c-2.5557-1.08-5.3994-3.0957-5.3994-6.9472,0-4.1758,3.6714-7.3072,8.71-7.3072a11.3483,11.3483,0,0,1,8.0274,3.3477L54.741,29.328a8.4387,8.4387,0,0,0-5.832-2.3755c-2.6992,0-4.4629,1.2954-4.4629,3.4194,0,2.2676,2.1236,3.1314,4.2832,3.9956l3.6358,1.5479c3.1318,1.3315,5.3994,3.2754,5.3994,7.1631,0,4.247-3.5274,7.7026-9.3228,7.7026A13.2169,13.2169,0,0,1,39.0106,46.8939Z"/><path class="cls-1" d="M60.286,46.8939l2.4472-2.88a10.2738,10.2738,0,0,0,7.0557,3.1318c3.2041,0,5.0029-1.5117,5.0029-3.7436,0-2.4116-1.7988-3.1675-4.247-4.2476l-3.6709-1.5835c-2.5567-1.08-5.4-3.0957-5.4-6.9472,0-4.1758,3.6718-7.3072,8.7109-7.3072a11.3479,11.3479,0,0,1,8.0273,3.3477L76.0164,29.328a8.4389,8.4389,0,0,0-5.832-2.3755c-2.6992,0-4.4629,1.2954-4.4629,3.4194,0,2.2676,2.1231,3.1314,4.2832,3.9956l3.6358,1.5479c3.1318,1.3315,5.3994,3.2754,5.3994,7.1631,0,4.247-3.5274,7.7026-9.3223,7.7026A13.2172,13.2172,0,0,1,60.286,46.8939Z"/><circle class="cls-1" cx="21.4616" cy="70.9289" r="3.2126"/><path class="cls-1" d="M56.2163,69.7607a5.9579,5.9579,0,1,0,5.9,5.9572A5.9288,5.9288,0,0,0,56.2163,69.7607Zm0,9.5787a3.623,3.623,0,1,1,3.5047-3.6215A3.5646,3.5646,0,0,1,56.2163,79.3394Z"/><rect class="cls-1" x="41.7405" y="76.8861" width="5.9964" height="1.9859"/><path class="cls-1" d="M44.9341,73.38l-.4625,1.171L41.3777,81.559H38.81l5.0692-11.1132a1.1686,1.1686,0,0,1,2.1278,0L51.076,81.559H48.5081l-3.094-7.0085-.4625-1.171Z"/><path class="cls-1" d="M65.6174,70.2237a1.1683,1.1683,0,0,0-2.1.7052v10.63h2.3364V75.7179l-.0116-1.7515h.0116l1.265,1.7515,4.2289,5.4949a1.1683,1.1683,0,0,0,2.1-.7051v-10.63H71.1112v5.84l.0116,1.7523h-.0116l-1.2649-1.7523Z"/><path class="cls-1" d="M34.2879,75.6394l2.0685,2.25,3.1566,3.67H36.4148l-4.61-5.6808a.5177.5177,0,0,1-.121-.3353.5255.5255,0,0,1,.5257-.5253h3.1543a1.5186,1.5186,0,1,0,0-3.0372H21.4616a1.0514,1.0514,0,1,1,0-2.1027H35.5971a3.651,3.651,0,0,1,3.68,3.6215,3.5831,3.5831,0,0,1-1.1682,2.6459,3.63,3.63,0,0,1-2.5993.8871"/><path class="cls-2" d="M89.7963,27.6246c.0328-.032.0674-.0624.0978-.0964a1.9354,1.9354,0,0,0,.4026-1.8833c-.0148-.0461-.0388-.0859-.0566-.13-.1084-.1821-.2134-.3667-.3239-.5469A44.8448,44.8448,0,0,0,52.9935,3.6949a44.9043,44.9043,0,0,1,18.03,6.5072c-.0769-.0485-.1517-.1-.229-.1479A44.8559,44.8559,0,0,1,89.7963,27.6246Z"/><path class="cls-3" d="M95.6275,44.6828a44.5717,44.5717,0,0,0-5.7951-16.9992c-.0117-.02-.0244-.0391-.0361-.059a44.8559,44.8559,0,0,0-19.0021-17.57c.0773.0481.1521.0994.229.1479q.4752.2987.9427.6093c.0627.0418.1258.083.1882.125A44.9579,44.9579,0,0,1,87.09,27.829a44.4962,44.4962,0,0,1,4.7515,17.3449c.007.1109.01.2227.0163.3336a1.9339,1.9339,0,0,0,3.8364-.0511c.0056-.048,0-.0943.0022-.1418C95.673,45.1042,95.6538,44.8925,95.6275,44.6828Z"/><path class="cls-4" d="M68.0724,89.7963c.0319.0328.0623.0674.0964.0978a1.9354,1.9354,0,0,0,1.8833.4026c.046-.0148.0859-.0388.13-.0566.182-.1084.3667-.2134.5469-.3239A44.8445,44.8445,0,0,0,92.002,52.9935a44.9043,44.9043,0,0,1-6.5072,18.03c.0485-.0769.1-.1517.1479-.229A44.8563,44.8563,0,0,1,68.0724,89.7963Z"/><path class="cls-5" d="M51.0142,95.6275a44.5717,44.5717,0,0,0,16.9992-5.7951c.02-.0117.0391-.0244.059-.0361a44.8563,44.8563,0,0,0,17.57-19.0021c-.048.0773-.0994.1521-.1479.229q-.2987.4752-.6093.9427c-.0417.0627-.0829.1258-.125.1882A44.9583,44.9583,0,0,1,67.868,87.09a44.4971,44.4971,0,0,1-17.345,4.7515c-.1108.0071-.2226.01-.3336.0163a1.9339,1.9339,0,0,0,.0512,3.8364c.048.0056.0942,0,.1417.0022C50.5928,95.673,50.8044,95.6538,51.0142,95.6275Z"/><path class="cls-6" d="M5.9006,68.0724c-.0327.0319-.0673.0623-.0978.0964A1.9357,1.9357,0,0,0,5.4,70.0521c.0148.046.0389.0858.0566.13.1084.182.2134.3667.324.5469A44.8444,44.8444,0,0,0,42.7034,92.002a44.9043,44.9043,0,0,1-18.03-6.5072c.077.0485.1517.1.229.1479A44.8563,44.8563,0,0,1,5.9006,68.0724Z"/><path class="cls-7" d="M.07,51.0142a44.5688,44.5688,0,0,0,5.795,16.9991c.0117.02.0245.0392.0361.0591a44.8563,44.8563,0,0,0,19.0021,17.57c-.0773-.048-.152-.0994-.229-.1479q-.475-.2987-.9427-.6093c-.0626-.0417-.1257-.0829-.1881-.125A44.9577,44.9577,0,0,1,8.6068,67.868,44.5006,44.5006,0,0,1,3.8553,50.523c-.007-.1108-.01-.2226-.0163-.3336a1.9339,1.9339,0,0,0-3.8364.0512c-.0056.048,0,.0942-.0021.1417C.0239,50.5928.0432,50.8044.07,51.0142Z"/><path class="cls-8" d="M27.6246,5.9007c-.032-.0328-.0624-.0674-.0964-.0978A1.9356,1.9356,0,0,0,25.6448,5.4c-.046.0148-.0858.0389-.13.0566-.182.1084-.3668.2134-.5469.3241A44.8441,44.8441,0,0,0,3.6949,42.7035a44.9047,44.9047,0,0,1,6.5072-18.03c-.0485.0769-.1.1517-.1479.229A44.8556,44.8556,0,0,1,27.6246,5.9007Z"/><path class="cls-9" d="M44.6828.07a44.57,44.57,0,0,0-16.9992,5.795c-.02.0117-.0391.0245-.059.0362a44.8556,44.8556,0,0,0-17.57,19.002c.048-.0773.0994-.1521.1479-.229q.2987-.475.6093-.9427c.0418-.0626.0829-.1257.1249-.1881A44.9583,44.9583,0,0,1,27.829,8.6068,44.4992,44.4992,0,0,1,45.1739,3.8553c.1109-.007.2227-.01.3336-.0162A1.9339,1.9339,0,0,0,45.4564.0026c-.048-.0056-.0943,0-.1418-.0021C45.1042.0239,44.8925.0432,44.6828.07Z"/></g></g></svg>