<svg xmlns="http://www.w3.org/2000/svg" viewBox="0 0 160 160"><defs><style>.cls-1,.cls-2{fill:#2baae2;}.cls-2{opacity:0.5;}</style></defs><polygon class="cls-1" points="81.7 9.442 73.199 9.442 78.3 14.543 86.801 14.543 81.7 9.442"/><polygon class="cls-2" points="69.422 10.219 61.05 11.695 66.959 15.833 75.331 14.356 69.422 10.219"/><polygon class="cls-1" points="57.466 13.116 49.477 16.023 56.015 19.072 64.003 16.164 57.466 13.116"/><polygon class="cls-2" points="46.194 18.045 38.832 22.296 45.799 24.163 53.161 19.912 46.194 18.045"/><polygon class="cls-1" points="35.949 24.857 29.437 30.321 36.623 30.95 43.135 25.486 35.949 24.857"/><polygon class="cls-2" points="27.043 33.344 21.578 39.856 28.764 39.227 34.228 32.715 27.043 33.344"/><polygon class="cls-1" points="19.745 43.249 15.495 50.611 22.462 48.744 26.713 41.382 19.745 43.249"/><polygon class="cls-2" points="14.279 54.27 11.371 62.258 17.909 59.21 20.816 51.222 14.279 54.27"/><polygon class="cls-1" points="10.81 66.073 9.333 74.445 15.242 70.308 16.718 61.936 10.81 66.073"/><polygon class="cls-2" points="9.442 78.3 9.442 86.801 14.543 81.7 14.543 73.199 9.442 78.3"/><polygon class="cls-1" points="10.219 90.578 11.695 98.95 15.833 93.041 14.356 84.669 10.219 90.578"/><polygon class="cls-2" points="13.116 102.534 16.023 110.523 19.072 103.985 16.164 95.997 13.116 102.534"/><polygon class="cls-1" points="18.045 113.806 22.296 121.168 24.163 114.201 19.912 106.839 18.045 113.806"/><polygon class="cls-2" points="24.857 124.051 30.321 130.563 30.95 123.377 25.486 116.865 24.857 124.051"/><polygon class="cls-1" points="33.344 132.957 39.856 138.422 39.227 131.236 32.715 125.772 33.344 132.957"/><polygon class="cls-2" points="43.249 140.255 50.611 144.505 48.744 137.538 41.382 133.287 43.249 140.255"/><polygon class="cls-1" points="54.27 145.721 62.258 148.629 59.21 142.091 51.222 139.184 54.27 145.721"/><polygon class="cls-2" points="66.073 149.19 74.445 150.667 70.308 144.758 61.936 143.282 66.073 149.19"/><polygon class="cls-1" points="78.3 150.558 86.801 150.558 81.7 145.457 73.199 145.457 78.3 150.558"/><polygon class="cls-2" points="90.578 149.781 98.95 148.305 93.041 144.167 84.669 145.644 90.578 149.781"/><polygon class="cls-1" points="102.534 146.884 110.523 143.977 103.985 140.928 95.997 143.836 102.534 146.884"/><polygon class="cls-2" points="113.806 141.955 121.168 137.704 114.201 135.837 106.839 140.088 113.806 141.955"/><polygon class="cls-1" points="124.051 135.143 130.563 129.679 123.377 129.05 116.865 134.514 124.051 135.143"/><polygon class="cls-2" points="132.957 126.656 138.422 120.144 131.236 120.773 125.772 127.285 132.957 126.656"/><polygon class="cls-1" points="140.255 116.751 144.505 109.389 137.538 111.256 133.287 118.618 140.255 116.751"/><polygon class="cls-2" points="145.721 105.73 148.629 97.742 142.091 100.79 139.184 108.778 145.721 105.73"/><polygon class="cls-1" points="149.19 93.927 150.667 85.555 144.758 89.692 143.282 98.064 149.19 93.927"/><polygon class="cls-2" points="150.558 81.7 150.558 73.199 145.457 78.3 145.457 86.801 150.558 81.7"/><polygon class="cls-1" points="149.781 69.422 148.305 61.05 144.167 66.959 145.644 75.331 149.781 69.422"/><polygon class="cls-2" points="146.884 57.466 143.977 49.477 140.928 56.015 143.836 64.003 146.884 57.466"/><polygon class="cls-1" points="141.955 46.194 137.704 38.832 135.837 45.799 140.088 53.161 141.955 46.194"/><polygon class="cls-2" points="135.143 35.949 129.679 29.437 129.05 36.623 134.514 43.135 135.143 35.949"/><polygon class="cls-1" points="126.656 27.043 120.144 21.578 120.773 28.764 127.285 34.228 126.656 27.043"/><polygon class="cls-2" points="116.751 19.745 109.389 15.495 111.256 22.462 118.618 26.713 116.751 19.745"/><polygon class="cls-1" points="105.73 14.279 97.742 11.371 100.79 17.909 108.778 20.816 105.73 14.279"/><polygon class="cls-2" points="93.927 10.81 85.555 9.333 89.692 15.242 98.064 16.718 93.927 10.81"/></svg>