<svg xmlns="http://www.w3.org/2000/svg" viewBox="0 0 160 160"><defs><style>.cls-1,.cls-2{fill:#2baae2;}.cls-2{opacity:0.5;}</style></defs><polygon class="cls-1" points="78.075 0.123 87.699 0.123 81.925 5.898 72.301 5.898 78.075 0.123"/><polygon class="cls-2" points="91.975 1.003 101.452 2.674 94.763 7.358 85.286 5.686 91.975 1.003"/><polygon class="cls-1" points="105.511 4.282 114.554 7.574 107.153 11.025 98.11 7.733 105.511 4.282"/><polygon class="cls-2" points="118.271 9.862 126.606 14.674 118.718 16.788 110.384 11.976 118.271 9.862"/><polygon class="cls-1" points="129.869 17.574 137.241 23.76 129.107 24.471 121.734 18.285 129.869 17.574"/><polygon class="cls-2" points="139.952 27.182 146.138 34.554 138.003 33.842 131.817 26.47 139.952 27.182"/><polygon class="cls-1" points="148.213 38.395 153.025 46.729 145.137 44.616 140.325 36.281 148.213 38.395"/><polygon class="cls-2" points="154.401 50.872 157.693 59.915 150.292 56.464 147 47.421 154.401 50.872"/><polygon class="cls-1" points="158.329 64.234 160 73.712 153.311 69.028 151.64 59.55 158.329 64.234"/><polygon class="cls-2" points="159.877 78.075 159.877 87.699 154.102 81.925 154.102 72.301 159.877 78.075"/><polygon class="cls-1" points="158.997 91.975 157.326 101.452 152.642 94.763 154.314 85.286 158.997 91.975"/><polygon class="cls-2" points="155.718 105.511 152.426 114.554 148.975 107.153 152.267 98.11 155.718 105.511"/><polygon class="cls-1" points="150.138 118.271 145.326 126.606 143.212 118.718 148.024 110.384 150.138 118.271"/><polygon class="cls-2" points="142.426 129.869 136.24 137.241 135.529 129.107 141.715 121.734 142.426 129.869"/><polygon class="cls-1" points="132.818 139.952 125.446 146.138 126.158 138.003 133.53 131.817 132.818 139.952"/><polygon class="cls-2" points="121.605 148.213 113.271 153.025 115.384 145.137 123.719 140.325 121.605 148.213"/><polygon class="cls-1" points="109.128 154.401 100.085 157.693 103.536 150.292 112.579 147 109.128 154.401"/><polygon class="cls-2" points="95.766 158.329 86.288 160 90.972 153.311 100.45 151.64 95.766 158.329"/><polygon class="cls-1" points="81.925 159.877 72.301 159.877 78.075 154.102 87.699 154.102 81.925 159.877"/><polygon class="cls-2" points="68.025 158.997 58.548 157.326 65.237 152.642 74.714 154.314 68.025 158.997"/><polygon class="cls-1" points="54.489 155.718 45.446 152.426 52.847 148.975 61.89 152.267 54.489 155.718"/><polygon class="cls-2" points="41.729 150.138 33.394 145.326 41.282 143.212 49.616 148.024 41.729 150.138"/><polygon class="cls-1" points="30.131 142.426 22.759 136.24 30.893 135.529 38.266 141.715 30.131 142.426"/><polygon class="cls-2" points="20.048 132.818 13.862 125.446 21.997 126.158 28.183 133.53 20.048 132.818"/><polygon class="cls-1" points="11.787 121.605 6.975 113.271 14.863 115.384 19.675 123.719 11.787 121.605"/><polygon class="cls-2" points="5.599 109.128 2.307 100.085 9.708 103.536 13 112.579 5.599 109.128"/><polygon class="cls-1" points="1.671 95.766 0 86.288 6.689 90.972 8.36 100.45 1.671 95.766"/><polygon class="cls-2" points="0.123 81.925 0.123 72.301 5.898 78.075 5.898 87.699 0.123 81.925"/><polygon class="cls-1" points="1.003 68.025 2.674 58.548 7.358 65.237 5.686 74.714 1.003 68.025"/><polygon class="cls-2" points="4.282 54.489 7.574 45.446 11.025 52.847 7.733 61.89 4.282 54.489"/><polygon class="cls-1" points="9.862 41.729 14.674 33.394 16.788 41.282 11.976 49.616 9.862 41.729"/><polygon class="cls-2" points="17.574 30.131 23.76 22.759 24.471 30.893 18.285 38.266 17.574 30.131"/><polygon class="cls-1" points="27.182 20.048 34.554 13.862 33.842 21.997 26.47 28.183 27.182 20.048"/><polygon class="cls-2" points="38.395 11.787 46.729 6.975 44.616 14.863 36.281 19.675 38.395 11.787"/><polygon class="cls-1" points="50.872 5.599 59.915 2.307 56.464 9.708 47.421 13 50.872 5.599"/><polygon class="cls-2" points="64.234 1.671 73.712 0 69.028 6.689 59.55 8.36 64.234 1.671"/></svg>