<svg xmlns="http://www.w3.org/2000/svg" width="41.7215" height="51.9328" viewBox="0 0 41.7215 51.9328"><defs><style>.cls-1{fill:#a80030;}</style></defs><title>debian-logo</title><g id="Layer_2" data-name="Layer 2"><g id="download"><path class="cls-1" d="M24.9338,27.4377c-.8605.012.1628.4435,1.2862.6163.31-.2423.5919-.4875.8428-.7259a6.42,6.42,0,0,1-2.129.11"/><path class="cls-1" d="M29.5525,26.2865A5.4661,5.4661,0,0,0,30.57,24.0042a5.5718,5.5718,0,0,1-.7164,1.5837c-1.6085,1.0128-.1513-.6015-.001-1.2149-1.73,2.1769-.2375,1.3054-.3,1.9135"/><path class="cls-1" d="M31.2572,21.85c.104-1.55-.305-1.06-.4424-.4683.16.0833.2873,1.0923.4424.4683"/><path class="cls-1" d="M21.6708.67c.4592.0824.9922.1456.9175.2553.5023-.11.6163-.2117-.9175-.2553"/><path class="cls-1" d="M22.5883.9252l-.3247.067.3022-.0268.0225-.04"/><path class="cls-1" d="M36.9084,22.4379a7.66,7.66,0,0,1-.82,3.262l-.7437.3716c-.6087,1.1819.0589.75-.3769,1.69-.95.8447-2.8833,2.6434-3.502,2.8076-.4515-.01.306-.5329.4052-.7379-1.2719.8735-1.02,1.3111-2.9657,1.8417l-.057-.1264c-4.7973,2.2569-11.4612-2.2157-11.3736-8.3184-.0512.3874-.1455.2906-.2518.4472a7.6847,7.6847,0,0,1,4.3131-7.5814,7.2777,7.2777,0,0,1,8.09,1.0521,7.2114,7.2114,0,0,0-5.8944-2.83,6.6613,6.6613,0,0,0-5.723,3.4148c-1.3044.8212-1.4558,3.1658-2.0242,3.5948-.7647,5.6205,1.4385,8.0489,5.1656,10.9053.5866.3955.1652.4554.2447.7566a10.1131,10.1131,0,0,1-3.3047-2.527,8.8792,8.8792,0,0,0,1.7187,1.9811c-1.1675-.3955-2.7272-2.8291-3.1826-2.9283,2.0127,3.6035,8.1657,6.32,11.3875,4.9721a13.44,13.44,0,0,1-5.06-.5885c-.7035-.362-1.66-1.1119-1.4893-1.2522a12.563,12.563,0,0,0,12.7436-1.8059c.9678-.7537,2.0252-2.0361,2.3307-2.0538-.46.6919.0785.3328-.2749.9438.9645-1.5553-.419-.633.997-2.686l.523.72c-.1945-1.2911,1.6032-2.8589,1.4208-4.9008.4123-.6244.46.6719.0225,2.1085.6072-1.5937.16-1.85.316-3.1649a11.9457,11.9457,0,0,1,.5033,1.3782c-.3955-1.54.4061-2.5935.6044-3.4885-.1954-.0867-.6106.6809-.7054-1.1383.0139-.79.22-.4142.2993-.6086a3.4926,3.4926,0,0,1-.81-1.8566c.18-.273.48.7077.7241.748a18.0542,18.0542,0,0,1-.4387-2.3369c-.7135-1.4912-.2524.1987-.8313-.64-.76-2.3689.63-.55.724-1.6262a19.0255,19.0255,0,0,1,2.109,5.3236,21.8169,21.8169,0,0,0-1.055-3.7936c.35.147-.5631-2.686.4545-.81-1.0871-3.9995-4.6522-7.7366-7.932-9.49.4013.3673.9079.8285.726.9008-1.6311-.9712-1.3442-1.0468-1.5779-1.4572-1.3289-.5407-1.416.0435-2.2962.0009-2.5045-1.3284-2.9872-1.1871-5.292-2.0194l.1049.49c-1.6593-.5526-1.9332.21-3.7265.0019-.1092-.0852.5746-.3084,1.1373-.39-1.6042.2116-1.5291-.3161-3.0988.0584A13.3353,13.3353,0,0,1,20.3745.37c-1.3083.08-3.1232.7614-2.5629.1412-2.1339.952-5.9236,2.2885-8.05,4.2826l-.067-.4468C8.72,5.517,5.4448,7.841,5.1838,9.3561l-.26.0609a28.0979,28.0979,0,0,0-1.2374,2.7151c-.6632,1.13-.9721.4348-.8778.612a41.3084,41.3084,0,0,0-2.5121,6.69c.3989.5962.01,3.5891.16,5.9844-.6551,11.83,8.3026,23.3162,18.0941,25.9681a19.71,19.71,0,0,0,5.3848.5464c-2.1419-.6125-2.4187-.3247-4.5052-1.0521-1.505-.7087-1.835-1.518-2.9009-2.4431l.4218.7456c-2.0907-.74-1.2158-.9156-2.9167-1.4544l.4506-.5885a3.8742,3.8742,0,0,1-2.1-1.746l-.7413.0293c-.8907-1.099-1.3653-1.8911-1.3308-2.5045l-.2394.4266c-.2716-.4659-3.2769-4.1216-1.7177-3.2706a3.515,3.515,0,0,1-1.0923-1.19l.3174-.363a6.0409,6.0409,0,0,1-1.3331-2.6151,1.6964,1.6964,0,0,0,.9529.7341C5.3054,31.94,5.1991,36.3825,3.764,31.8558l.3036-.0245a10.0484,10.0484,0,0,1-.5613-1.1047L3.6385,29.41c-1.3643-1.5774-.3817-6.707-.1848-9.52.1364-1.144,1.1387-2.3618,1.9011-4.2715l-.4645-.08c.8878-1.5486,5.0693-6.2195,7.0058-5.9791.9381-1.1785-.1863-.0043-.37-.3012,2.0606-2.1324,2.7085-1.5065,4.0991-1.89,1.5-.89-1.2872.3472-.576-.34,2.5926-.6623,1.8374-1.5056,5.22-1.8418.3568.2031-.8279.3137-1.1253.5771,2.16-1.0569,6.8358-.8165,9.8728.5866,3.524,1.6468,7.4833,6.515,7.6394,11.0954l.1777.0479c-.09,1.8206.2787,3.9262-.36,5.86l.4348-.9156"/><path class="cls-1" d="M15.5413,28.6191l-.1207.6034a11.5905,11.5905,0,0,0,1.7364,2.2009c-.52-1.0143-.9056-1.4333-1.6157-2.8043"/><path class="cls-1" d="M16.8783,28.5664a4.7869,4.7869,0,0,1-.6748-1.1263,7.8357,7.8357,0,0,0,.94,1.9069l-.2648-.7806"/><path class="cls-1" d="M40.5363,23.4243l-.1264.317a15.3039,15.3039,0,0,1-1.4994,4.7859,15.0383,15.0383,0,0,0,1.6258-5.1029"/><path class="cls-1" d="M21.8408.2572A18.5317,18.5317,0,0,1,23.8884,0c-.8045.0675-1.6052.1077-2.3958.21l.3482.0475"/><path class="cls-1" d="M1.4146,11.1188c.1341,1.2413-.9338,1.723.2366.9046.6273-1.4131-.2452-.39-.2366-.9046"/><path class="cls-1" d="M.0393,16.8634A13.4686,13.4686,0,0,0,.4607,15.06c-.7451.9525-.3428,1.1555-.4214,1.8035"/></g></g></svg>