<svg id="레이어_1" data-name="레이어 1" xmlns="http://www.w3.org/2000/svg" width="37.6749" height="6.1317" viewBox="0 0 37.6749 6.1317"><defs><style>.cls-1{fill:#ed1c24;}.cls-2{fill:#e6e6e6;}</style></defs><title>desk1-1</title><path class="cls-1" d="M7.4417,5.839a11.6573,11.6573,0,0,1,5.0929,1.2269h1.1863V.9341H1.1626V7.0659H2.3488A11.6573,11.6573,0,0,1,7.4417,5.839" transform="translate(-1.1626 -0.9341)"/><path class="cls-2" d="M20,5.839a11.6573,11.6573,0,0,1,5.0929,1.2269h1.1862V.9341H13.7209V7.0659h1.1862A11.6573,11.6573,0,0,1,20,5.839" transform="translate(-1.1626 -0.9341)"/><path class="cls-2" d="M32.5583,5.839a11.6573,11.6573,0,0,1,5.0929,1.2269h1.1862V.9341H26.2791V7.0659h1.1863A11.6573,11.6573,0,0,1,32.5583,5.839" transform="translate(-1.1626 -0.9341)"/></svg>