<?xml version="1.0" encoding="utf-8"?>
<!-- Generator: Adobe Illustrator 22.1.0, SVG Export Plug-In . SVG Version: 6.00 Build 0)  -->
<svg version="1.1" id="레이어_1" xmlns="http://www.w3.org/2000/svg" xmlns:xlink="http://www.w3.org/1999/xlink" x="0px"
	 y="0px" viewBox="0 0 19.3464 20.3421" style="enable-background:new 0 0 19.3464 20.3421;" xml:space="preserve">
<style type="text/css">
	.st0{fill:#E6E6E6;}
	.st1{fill:#29ABE2;}
</style>
<title>desk2-1</title>
<g>
	<path class="st0" d="M10.5021,15.8654l1.4546,4.4767l5.3472-3.885l-3.8117-2.7693C12.7567,14.6984,11.7163,15.4711,10.5021,15.8654
		z"/>
	<path class="st0" d="M14.6409,10.1711c0,1.3158-0.4293,2.5285-1.1486,3.5167l3.8117,2.7693l2.0425-6.286H14.6409z"/>
	<path class="st0" d="M13.4922,6.6544l3.8117-2.7694L11.9567,0l-1.4546,4.4767C11.7163,4.8711,12.7566,5.6438,13.4922,6.6544z"/>
	<path class="st0" d="M8.652,4.1822c0.6462,0,1.2671,0.1052,1.8502,0.2946L11.9567,0H5.3472l1.4546,4.4768
		C7.3848,4.2875,8.0058,4.1822,8.652,4.1822z"/>
	<path class="st0" d="M14.6409,10.1711h4.7056L17.3039,3.885l-3.8117,2.7694C14.2115,7.6426,14.6409,8.8553,14.6409,10.1711z"/>
	<path class="st1" d="M6.8018,4.4768L5.3472,0L0,3.885l3.8117,2.7694C4.5473,5.6438,5.5876,4.8711,6.8018,4.4768z"/>
</g>
</svg>
