<svg id="레이어_1" data-name="레이어 1" xmlns="http://www.w3.org/2000/svg" width="19.3464" height="20.3421" viewBox="0 0 19.3464 20.3421"><defs><style>.cls-1{fill:#e6e6e6;}.cls-2{fill:#29abe2;}</style></defs><title>desk2-1</title><path class="cls-1" d="M9.1711,16.6943,7.7165,21.171,2.3693,17.286l3.8116-2.7693A5.9935,5.9935,0,0,0,9.1711,16.6943Z" transform="translate(-0.3268 -0.829)"/><path class="cls-1" d="M5.0323,11a5.9544,5.9544,0,0,0,1.1486,3.5167L2.3693,17.286.3268,11Z" transform="translate(-0.3268 -0.829)"/><path class="cls-1" d="M6.181,7.4833,2.3693,4.714,7.7165.829,9.1711,5.3057A5.9938,5.9938,0,0,0,6.181,7.4833Z" transform="translate(-0.3268 -0.829)"/><path class="cls-1" d="M11.0212,5.0111a5.9784,5.9784,0,0,0-1.85.2946L7.7165.829h6.61L12.8714,5.3058A5.9757,5.9757,0,0,0,11.0212,5.0111Z" transform="translate(-0.3268 -0.829)"/><path class="cls-1" d="M5.0323,11H.3268L2.3693,4.714,6.181,7.4833A5.9538,5.9538,0,0,0,5.0323,11Z" transform="translate(-0.3268 -0.829)"/><path class="cls-2" d="M12.8714,5.3058,14.326.829l5.3472,3.885L15.8615,7.4833A5.9937,5.9937,0,0,0,12.8714,5.3058Z" transform="translate(-0.3268 -0.829)"/></svg>