<svg id="레이어_1" data-name="레이어 1" xmlns="http://www.w3.org/2000/svg" width="25" height="11.8882" viewBox="0 0 25 11.8882"><defs><style>.cls-1{fill:#29abe2;}.cls-2{fill:#e6e6e6;}</style></defs><title>desk4-1</title><path class="cls-1" d="M6.8425,7.8337,2.3873,4.5968,0,11.9441H5.5A6.9591,6.9591,0,0,1,6.8425,7.8337Z" transform="translate(0 -0.0559)"/><path class="cls-2" d="M18.1574,7.8337l4.4553-3.2369L16.3627.0559l-1.7,5.2325A7.0061,7.0061,0,0,1,18.1574,7.8337Z" transform="translate(0 -0.0559)"/><path class="cls-2" d="M12.5,4.9441a6.9871,6.9871,0,0,1,2.1625.3443l1.7-5.2325H8.6373l1.7,5.2326A6.9873,6.9873,0,0,1,12.5,4.9441Z" transform="translate(0 -0.0559)"/><path class="cls-2" d="M19.5,11.9441H25L22.6127,4.5968,18.1574,7.8337A6.9592,6.9592,0,0,1,19.5,11.9441Z" transform="translate(0 -0.0559)"/><path class="cls-2" d="M10.3374,5.2885,8.6373.0559l-6.25,4.5409L6.8425,7.8337A7.0064,7.0064,0,0,1,10.3374,5.2885Z" transform="translate(0 -0.0559)"/></svg>