<svg id="레이어_1" data-name="레이어 1" xmlns="http://www.w3.org/2000/svg" viewBox="0 0 903.33 185.96"><defs><style>.cls-1{fill:#0097ca;opacity:0.03;}</style></defs><polygon class="cls-1" points="841.82 54.16 812.64 54.16 798.05 79.43 812.64 104.7 841.82 104.7 856.41 79.43 841.82 54.16"/><polygon class="cls-1" points="841.82 108.34 812.64 108.34 798.05 133.61 812.64 158.88 841.82 158.88 856.41 133.61 841.82 108.34"/><polygon class="cls-1" points="888.74 135.42 859.56 135.42 844.97 160.69 859.56 185.96 888.74 185.96 903.33 160.69 888.74 135.42"/><polygon class="cls-1" points="888.74 81.25 859.56 81.25 844.97 106.52 859.56 131.79 888.74 131.79 903.33 106.52 888.74 81.25"/><polygon class="cls-1" points="654.05 54.16 624.87 54.16 610.28 79.43 624.87 104.7 654.05 104.7 668.64 79.43 654.05 54.16"/><polygon class="cls-1" points="654.05 108.34 624.87 108.34 610.28 133.61 624.87 158.88 654.05 158.88 668.64 133.61 654.05 108.34"/><polygon class="cls-1" points="700.96 135.42 671.78 135.42 657.2 160.69 671.78 185.96 700.96 185.96 715.55 160.69 700.96 135.42"/><polygon class="cls-1" points="607.1 135.42 577.92 135.42 563.33 160.69 577.92 185.96 607.1 185.96 621.69 160.69 607.1 135.42"/><polygon class="cls-1" points="747.91 108.34 718.73 108.34 704.14 133.61 718.73 158.88 747.91 158.88 762.5 133.61 747.91 108.34"/><polygon class="cls-1" points="700.96 81.25 671.78 81.25 657.2 106.52 671.78 131.79 700.96 131.79 715.55 106.52 700.96 81.25"/><polygon class="cls-1" points="794.85 135.42 765.67 135.42 751.08 160.69 765.67 185.96 794.85 185.96 809.44 160.69 794.85 135.42"/><polygon class="cls-1" points="794.88 27.08 765.7 27.08 751.11 52.35 765.7 77.62 794.88 77.62 809.47 52.35 794.88 27.08"/><polygon class="cls-1" points="794.88 81.25 765.7 81.25 751.11 106.52 765.7 131.79 794.88 131.79 809.47 106.52 794.88 81.25"/><polygon class="cls-1" points="841.8 0 812.62 0 798.03 25.27 812.62 50.54 841.8 50.54 856.39 25.27 841.8 0"/><polygon class="cls-1" points="841.8 54.17 812.62 54.17 798.03 79.44 812.62 104.71 841.8 104.71 856.39 79.44 841.8 54.17"/><polygon class="cls-1" points="888.74 27.08 859.56 27.08 844.97 52.35 859.56 77.62 888.74 77.62 903.33 52.35 888.74 27.08"/><polygon class="cls-1" points="607.1 27.08 577.92 27.08 563.33 52.35 577.92 77.62 607.1 77.62 621.69 52.35 607.1 27.08"/><polygon class="cls-1" points="607.1 81.25 577.92 81.25 563.33 106.52 577.92 131.79 607.1 131.79 621.69 106.52 607.1 81.25"/><polygon class="cls-1" points="654.02 0 624.84 0 610.25 25.27 624.84 50.54 654.02 50.54 668.61 25.27 654.02 0"/><polygon class="cls-1" points="654.02 54.17 624.84 54.17 610.25 79.44 624.84 104.71 654.02 104.71 668.61 79.44 654.02 54.17"/><polygon class="cls-1" points="700.96 27.08 671.78 27.08 657.2 52.35 671.78 77.62 700.96 77.62 715.55 52.35 700.96 27.08"/><polygon class="cls-1" points="747.92 54.16 718.74 54.16 704.15 79.43 718.74 104.7 747.92 104.7 762.51 79.43 747.92 54.16"/><polygon class="cls-1" points="747.91 0 718.73 0 704.14 25.27 718.73 50.54 747.91 50.54 762.5 25.27 747.91 0"/><path class="cls-1" d="M671.78,77.62"/><polygon class="cls-1" points="560.16 54.16 530.98 54.16 516.39 79.43 530.98 104.7 560.16 104.7 574.75 79.43 560.16 54.16"/><polygon class="cls-1" points="560.16 108.34 530.98 108.34 516.39 133.61 530.98 158.88 560.16 158.88 574.75 133.61 560.16 108.34"/><polygon class="cls-1" points="372.38 54.16 343.2 54.16 328.61 79.43 343.2 104.7 372.38 104.7 386.97 79.43 372.38 54.16"/><polygon class="cls-1" points="372.38 108.34 343.2 108.34 328.61 133.61 343.2 158.88 372.38 158.88 386.97 133.61 372.38 108.34"/><polygon class="cls-1" points="419.3 135.42 390.12 135.42 375.53 160.69 390.12 185.96 419.3 185.96 433.89 160.69 419.3 135.42"/><polygon class="cls-1" points="466.24 108.34 437.06 108.34 422.47 133.61 437.06 158.88 466.24 158.88 480.83 133.61 466.24 108.34"/><polygon class="cls-1" points="419.3 81.25 390.12 81.25 375.53 106.52 390.12 131.79 419.3 131.79 433.89 106.52 419.3 81.25"/><polygon class="cls-1" points="513.19 135.42 484.01 135.42 469.42 160.69 484.01 185.96 513.19 185.96 527.78 160.69 513.19 135.42"/><polygon class="cls-1" points="513.21 27.08 484.03 27.08 469.44 52.35 484.03 77.62 513.21 77.62 527.8 52.35 513.21 27.08"/><polygon class="cls-1" points="513.21 81.25 484.03 81.25 469.44 106.52 484.03 131.79 513.21 131.79 527.8 106.52 513.21 81.25"/><polygon class="cls-1" points="560.13 0 530.95 0 516.36 25.27 530.95 50.54 560.13 50.54 574.72 25.27 560.13 0"/><polygon class="cls-1" points="560.13 54.17 530.95 54.17 516.36 79.44 530.95 104.71 560.13 104.71 574.72 79.44 560.13 54.17"/><polygon class="cls-1" points="325.44 27.08 296.26 27.08 281.67 52.35 296.26 77.62 325.44 77.62 340.03 52.35 325.44 27.08"/><polygon class="cls-1" points="325.44 81.25 296.26 81.25 281.67 106.52 296.26 131.79 325.44 131.79 340.03 106.52 325.44 81.25"/><polygon class="cls-1" points="372.35 0 343.18 0 328.58 25.27 343.18 50.54 372.35 50.54 386.94 25.27 372.35 0"/><polygon class="cls-1" points="372.35 54.17 343.18 54.17 328.58 79.44 343.18 104.71 372.35 104.71 386.94 79.44 372.35 54.17"/><polygon class="cls-1" points="419.3 27.08 390.12 27.08 375.53 52.35 390.12 77.62 419.3 77.62 433.89 52.35 419.3 27.08"/><polygon class="cls-1" points="466.25 54.16 437.08 54.16 422.49 79.43 437.08 104.7 466.25 104.7 480.85 79.43 466.25 54.16"/><polygon class="cls-1" points="466.24 0 437.06 0 422.47 25.27 437.06 50.54 466.24 50.54 480.83 25.27 466.24 0"/><path class="cls-1" d="M390.12,77.62"/><polygon class="cls-1" points="278.49 54.16 249.31 54.16 234.72 79.43 249.31 104.7 278.49 104.7 293.08 79.43 278.49 54.16"/><polygon class="cls-1" points="278.49 108.34 249.31 108.34 234.72 133.61 249.31 158.88 278.49 158.88 293.08 133.61 278.49 108.34"/><polygon class="cls-1" points="90.71 54.16 61.53 54.16 46.94 79.43 61.53 104.7 90.71 104.7 105.3 79.43 90.71 54.16"/><polygon class="cls-1" points="90.71 108.34 61.53 108.34 46.94 133.61 61.53 158.88 90.71 158.88 105.3 133.61 90.71 108.34"/><polygon class="cls-1" points="137.63 135.42 108.45 135.42 93.86 160.69 108.45 185.96 137.63 185.96 152.22 160.69 137.63 135.42"/><polygon class="cls-1" points="184.57 108.34 155.4 108.34 140.81 133.61 155.4 158.88 184.57 158.88 199.16 133.61 184.57 108.34"/><polygon class="cls-1" points="137.63 81.25 108.45 81.25 93.86 106.52 108.45 131.79 137.63 131.79 152.22 106.52 137.63 81.25"/><polygon class="cls-1" points="231.52 135.42 202.34 135.42 187.75 160.69 202.34 185.96 231.52 185.96 246.11 160.69 231.52 135.42"/><polygon class="cls-1" points="231.54 27.08 202.37 27.08 187.78 52.35 202.37 77.62 231.54 77.62 246.13 52.35 231.54 27.08"/><polygon class="cls-1" points="231.54 81.25 202.37 81.25 187.78 106.52 202.37 131.79 231.54 131.79 246.13 106.52 231.54 81.25"/><polygon class="cls-1" points="278.46 0 249.28 0 234.69 25.27 249.28 50.54 278.46 50.54 293.05 25.27 278.46 0"/><polygon class="cls-1" points="278.46 54.17 249.28 54.17 234.69 79.44 249.28 104.71 278.46 104.71 293.05 79.44 278.46 54.17"/><polygon class="cls-1" points="43.77 27.08 14.59 27.08 0 52.35 14.59 77.62 43.77 77.62 58.36 52.35 43.77 27.08"/><polygon class="cls-1" points="43.77 81.25 14.59 81.25 0 106.52 14.59 131.79 43.77 131.79 58.36 106.52 43.77 81.25"/><polygon class="cls-1" points="90.69 0 61.51 0 46.92 25.27 61.51 50.54 90.69 50.54 105.28 25.27 90.69 0"/><polygon class="cls-1" points="90.69 54.17 61.51 54.17 46.92 79.44 61.51 104.71 90.69 104.71 105.28 79.44 90.69 54.17"/><polygon class="cls-1" points="137.63 27.08 108.45 27.08 93.86 52.35 108.45 77.62 137.63 77.62 152.22 52.35 137.63 27.08"/><polygon class="cls-1" points="184.59 54.16 155.41 54.16 140.82 79.43 155.41 104.7 184.59 104.7 199.18 79.43 184.59 54.16"/><polygon class="cls-1" points="184.57 0 155.4 0 140.81 25.27 155.4 50.54 184.57 50.54 199.16 25.27 184.57 0"/><path class="cls-1" d="M108.45,77.62"/></svg>