<?xml version="1.0" encoding="utf-8"?>
<!-- Generator: Adobe Illustrator 22.1.0, SVG Export Plug-In . SVG Version: 6.00 Build 0)  -->
<svg version="1.1" xmlns="http://www.w3.org/2000/svg" xmlns:xlink="http://www.w3.org/1999/xlink" x="0px" y="0px" width="500px"
	 height="500px" viewBox="0 0 500 500" style="enable-background:new 0 0 500 500;" xml:space="preserve">
<style type="text/css">
	.st0{display:none;}
	.st1{display:inline;stroke:#000000;stroke-miterlimit:10;}
	.st2{display:inline;fill:none;stroke:#F2F2F2;stroke-miterlimit:10;}
	.st3{display:inline;}
	.st4{fill:#F2F2F2;}
	.st5{fill:none;stroke:#F2F2F2;stroke-width:5;stroke-miterlimit:10;}
	.st6{opacity:0.2;fill:#F2F2F2;}
	.st7{fill:#FFFFFF;}
	.st8{display:inline;opacity:0.3;}
	.st9{fill:none;stroke:#F2F2F2;stroke-width:2;stroke-miterlimit:10;stroke-dasharray:183.0967,91.5484;}
	.st10{display:inline;opacity:0.3;fill:none;stroke:#FFFFFF;stroke-width:18;stroke-miterlimit:10;}
	.st11{fill:none;stroke:#F2F2F2;stroke-width:10;stroke-miterlimit:10;}
	.st12{fill:none;stroke:#F2F2F2;stroke-width:10;stroke-miterlimit:10;stroke-dasharray:4.9758,4.9758;}
	.st13{display:inline;fill:none;stroke:#FFFFFF;stroke-width:15;stroke-miterlimit:10;}
	.st14{display:inline;fill:none;stroke:#F2F2F2;stroke-width:5;stroke-miterlimit:10;}
	.st15{display:inline;fill:#F2F2F2;}
</style>
<g id="background" class="st0">
	<rect class="st1" width="500" height="500"/>
</g>
<g id="_x31_" class="st0">
	<circle class="st2" cx="250" cy="250" r="5.3362"/>
</g>
<g id="_x32_" class="st0">
	<g class="st3">
		<path class="st4" d="M250,224.8871c-13.8695,0-25.1129,11.2434-25.1129,25.1129c0,13.8695,11.2434,25.1129,25.1129,25.1129
			c13.8694,0,25.1129-11.2434,25.1129-25.1129C275.1129,236.1305,263.8694,224.8871,250,224.8871z M250,265.3006
			c-8.4503,0-15.3007-6.8503-15.3007-15.3006c0-8.4503,6.8503-15.3006,15.3007-15.3006s15.3007,6.8503,15.3007,15.3006
			C265.3007,258.4503,258.4503,265.3006,250,265.3006z"/>
		<rect x="218.0604" y="249.3624" class="st4" width="7.2899" height="3.3054"/>
		<rect x="274.6593" y="249.3624" class="st4" width="7.2899" height="3.3054"/>
	</g>
</g>
<g id="_x33_" class="st0">
	<g class="st3">
		<path class="st4" d="M249.9993,207.8414c-5.1765,0-10.1334,0.9326-14.7146,2.6394l1.6838,4.0012
			c4.0625-1.4921,8.4521-2.3047,13.0308-2.3047s8.9683,0.8125,13.0308,2.3047l1.6838-4.0012
			C260.1327,208.774,255.1758,207.8414,249.9993,207.8414z"/>
		<path class="st4" d="M207.8414,250.0007c0,5.1765,0.9326,10.1334,2.6394,14.7146l4.0012-1.6838
			c-1.4921-4.0626-2.3047-8.4521-2.3047-13.0308s0.8125-8.9683,2.3047-13.0308l-4.0012-1.6838
			C208.774,239.8673,207.8414,244.8242,207.8414,250.0007z"/>
		<path class="st4" d="M250.0007,292.1586c5.1765,0,10.1334-0.9326,14.7146-2.6394l-1.6838-4.0012
			c-4.0626,1.4921-8.4521,2.3047-13.0308,2.3047s-8.9683-0.8125-13.0308-2.3047l-1.6838,4.0012
			C239.8673,291.226,244.8242,292.1586,250.0007,292.1586z"/>
		<path class="st4" d="M292.1586,249.9993c0-5.1765-0.9326-10.1334-2.6394-14.7146l-4.0012,1.6838
			c1.4921,4.0625,2.3047,8.4521,2.3047,13.0308s-0.8125,8.9683-2.3047,13.0308l4.0012,1.6838
			C291.226,260.1327,292.1586,255.1758,292.1586,249.9993z"/>
	</g>
</g>
<g id="_x34_" class="st0">
	<g class="st3">
		<g>
			<circle class="st5" cx="250" cy="250" r="46.4606"/>
		</g>
		<g>
			<path class="st5" d="M286.1454,213.8546c4.7466,4.7466,8.512,10.382,11.0808,16.5836
				c2.5688,6.2017,3.8911,12.8491,3.8911,19.5618"/>
		</g>
	</g>
</g>
<g id="_x35_">
	<g>
		<path class="st4" d="M250,157c-51.3625,0-93,41.6375-93,93s41.6375,93,93,93s93-41.6375,93-93S301.3625,157,250,157z
			 M250,338.9416c-49.1211,0-88.9416-39.8205-88.9416-88.9416S200.8789,161.0584,250,161.0584S338.9416,200.8789,338.9416,250
			S299.1211,338.9416,250,338.9416z"/>
		<g>
			<path class="st4" d="M249.9985,160.3472c-11.0082,0-21.5492,1.9832-31.2915,5.6128l3.5807,8.5089
				c8.6393-3.1732,17.974-4.901,27.7108-4.901s19.0716,1.7278,27.7108,4.901l3.5807-8.5089
				C271.5477,162.3304,261.0067,160.3472,249.9985,160.3472z"/>
			<path class="st4" d="M160.3472,250.0015c0,11.0082,1.9832,21.5493,5.6128,31.2915l8.5089-3.5807
				c-3.1732-8.6393-4.901-17.974-4.901-27.7108s1.7278-19.0716,4.901-27.7108L165.96,218.71
				C162.3304,228.4523,160.3472,238.9933,160.3472,250.0015z"/>
			<path class="st4" d="M250.0015,339.6528c11.0082,0,21.5493-1.9832,31.2915-5.6128l-3.5807-8.5089
				c-8.6393,3.1731-17.974,4.901-27.7108,4.901s-19.0716-1.7278-27.7108-4.901L218.71,334.04
				C228.4523,337.6696,238.9933,339.6528,250.0015,339.6528z"/>
			<path class="st4" d="M339.6528,249.9985c0-11.0082-1.9832-21.5492-5.6128-31.2915l-8.5089,3.5807
				c3.1731,8.6393,4.901,17.974,4.901,27.7108s-1.7278,19.0716-4.901,27.7108l8.5089,3.5807
				C337.6696,271.5477,339.6528,261.0067,339.6528,249.9985z"/>
		</g>
	</g>
</g>
<g id="_x36_" class="st0">
	<g class="st3">
		<path class="st4" d="M246.5359,132.6005l-8.3735,14.5034c1.5396,2.6667,1.9245,3.3333,3.4641,6h16.7471
			c1.5396-2.6667,1.9245-3.3333,3.4641-6l-8.3736-14.5034C250.3849,132.6005,249.6151,132.6005,246.5359,132.6005z"/>
		<path class="st4" d="M150.0611,311.6997h16.7471c1.5396-2.6667,1.9245-3.3333,3.4641-6l-8.3735-14.5034
			c-3.0792,0-3.849,0-6.9282,0l-8.3735,14.5034C148.1366,308.3664,148.5215,309.0331,150.0611,311.6997z"/>
		<path class="st4" d="M353.403,305.6997l-8.3735-14.5034c-3.0792,0-3.849,0-6.9282,0l-8.3735,14.5034
			c1.5396,2.6667,1.9245,3.3333,3.4641,6h16.7471C351.4785,309.0331,351.8634,308.3664,353.403,305.6997z"/>
	</g>
</g>
<g id="_x37_" class="st0">
	<g class="st3">
		<path class="st6" d="M246.1787,64.3565v84.5524c-24.484,0.9007-46.6949,10.671-63.5386,26.1848L123.01,115.1415
			c0.0548-2.4674,0.0844-3.8,0.1392-6.2674c31.5643-28.7458,72.9362-46.9072,118.5089-48.8645
			C243.4375,61.7206,244.3994,62.6456,246.1787,64.3565z"/>
		<path class="st6" d="M116.0282,121.4323l59.7876,59.7876c-16.6759,17.9497-25.4727,40.5638-26.4131,63.444l-84.5575-0.2277
			c-1.7059-1.7835-2.6273-2.7467-4.3332-4.5302c1.993-42.6457,18.4052-84.7421,49.246-118.3509
			C112.226,121.5068,113.5602,121.4806,116.0282,121.4323z"/>
		<path class="st6" d="M64.3565,253.8213h84.5524c0.9007,24.484,10.671,46.6949,26.1848,63.5386L115.1415,376.99
			c-2.4674-0.0548-3.8-0.0844-6.2674-0.1393c-28.7458-31.5643-46.9072-72.9361-48.8645-118.5088
			C61.7206,256.5625,62.6456,255.6006,64.3565,253.8213z"/>
		<path class="st6" d="M121.4323,383.9718l59.7876-59.7876c17.9497,16.6759,40.5638,25.4727,63.444,26.4131l-0.2277,84.5575
			c-1.7835,1.7059-2.7467,2.6273-4.5302,4.3332c-42.6457-1.993-84.7421-18.4052-118.3509-49.246
			C121.5068,387.774,121.4806,386.4398,121.4323,383.9718z"/>
		<path class="st6" d="M253.8213,435.6435v-84.5524c24.484-0.9007,46.6949-10.671,63.5386-26.1848l59.6302,59.9521
			c-0.0548,2.4674-0.0844,3.8-0.1393,6.2674c-31.5643,28.7458-72.9361,46.9072-118.5088,48.8645
			C256.5625,438.2794,255.6006,437.3544,253.8213,435.6435z"/>
		<path class="st6" d="M383.9718,378.5677l-59.7876-59.7876c16.6759-17.9497,25.4727-40.5638,26.4131-63.444l84.5575,0.2277
			c1.7059,1.7834,2.6273,2.7467,4.3332,4.5302c-1.993,42.6457-18.4052,84.7421-49.246,118.3509
			C387.774,378.4932,386.4398,378.5193,383.9718,378.5677z"/>
		<path class="st6" d="M435.6435,246.1787h-84.5524c-0.9007-24.484-10.671-46.6949-26.1848-63.5386l59.9521-59.6302
			c2.4674,0.0548,3.8,0.0844,6.2674,0.1392c28.7458,31.5643,46.9072,72.9362,48.8645,118.5089
			C438.2794,243.4375,437.3544,244.3994,435.6435,246.1787z"/>
		<path class="st6" d="M378.5677,116.0282l-59.7876,59.7876c-17.9497-16.6759-40.5638-25.4727-63.444-26.4131l0.2277-84.5575
			c1.7834-1.7059,2.7467-2.6273,4.5302-4.3332c42.6457,1.993,84.7421,18.4052,118.3509,49.246
			C378.4932,112.226,378.5193,113.5602,378.5677,116.0282z"/>
	</g>
</g>
<g id="_x38_" class="st0">
	<g class="st3">
		<path class="st7" d="M250,55.5876c26.0245,0,51.2637,5.1328,75.0164,15.2557c22.9575,9.7841,43.5803,23.7958,61.2958,41.6461
			c17.7233,17.8581,31.6374,38.6518,41.3558,61.8036c10.0616,23.9693,15.1633,49.4407,15.1633,75.7069
			s-5.1016,51.7376-15.1633,75.7069c-9.7184,23.1518-23.6325,43.9456-41.3558,61.8036
			c-17.7155,17.8503-38.3384,31.862-61.2958,41.6461c-23.7527,10.1229-48.9919,15.2557-75.0164,15.2557
			s-51.2637-5.1328-75.0164-15.2557c-22.9575-9.7841-43.5803-23.7958-61.2958-41.6461
			c-17.7233-17.8581-31.6374-38.6518-41.3558-61.8036C62.2703,301.7376,57.1686,276.2662,57.1686,250
			s5.1016-51.7376,15.1633-75.7069c9.7185-23.1518,23.6325-43.9455,41.3558-61.8036c17.7155-17.8503,38.3384-31.862,61.2958-41.6461
			C198.7363,60.7205,223.9754,55.5876,250,55.5876 M250,40.5876C135.2179,40.5876,42.1686,134.3447,42.1686,250
			S135.2179,459.4124,250,459.4124S457.8314,365.6553,457.8314,250S364.7821,40.5876,250,40.5876L250,40.5876z"/>
	</g>
</g>
<g id="_x39_" class="st0">
	<g class="st8">
		<circle class="st9" cx="250" cy="250" r="218.5469"/>
	</g>
</g>
<g id="_x31_0" class="st0">
	<path class="st10" d="M249.9985,26.0196c-59.3805,0-116.3897,23.614-158.3781,65.6023S26.0181,190.6195,26.0181,250"/>
	<g class="st3">
		<g>
			<path class="st11" d="M249.9985,26.0196c-0.8336,0-1.667,0.0047-2.5,0.014"/>
			<path class="st12" d="M242.5239,26.1444c-37.4528,1.2507-74.0442,11.8837-106.3827,30.9729
				c-33.0576,19.5137-60.5262,47.1879-79.789,80.329"/>
			<path class="st11" d="M55.1203,139.593c-0.4106,0.7248-0.8174,1.4521-1.2202,2.182"/>
		</g>
	</g>
	<path class="st13" d="M50.4305,148.315c-7.9955,15.6922-14.1124,32.2727-18.2238,49.3978S26.0181,232.3883,26.0181,250"/>
</g>
<g id="_x31_1" class="st0">
	<circle class="st14" cx="250" cy="250" r="240.0092"/>
</g>
<g id="_x31_2" class="st0">
	<path class="st15" d="M253.4652,20.5034L261.8387,6c-1.5396-2.6667-1.9245-3.3333-3.4641-6h-16.7471
		c-1.5396,2.6667-1.9245,3.3333-3.4641,6l8.3736,14.5034C249.6162,20.5034,250.386,20.5034,253.4652,20.5034z"/>
</g>
</svg>
