<svg xmlns="http://www.w3.org/2000/svg" width="70.5787" height="95.697" viewBox="0 0 70.5787 95.697"><defs><style>.cls-1{fill:#5382a1;}.cls-2{fill:#f8981d;}</style></defs><title>Asset 3</title><g id="Layer_2" data-name="Layer 2"><g id="Layer_1-2" data-name="Layer 1"><path class="cls-1" d="M22.7306,74.0077s-3.657,2.1267,2.6026,2.8463c7.5832.8651,11.459.7411,19.8158-.8406a34.4743,34.4743,0,0,0,5.2654,2.5708c-18.7337,8.029-42.3981-.465-27.6838-4.5765"/><path class="cls-1" d="M20.4415,63.53S16.34,66.5666,22.604,67.2145c8.1007.8357,14.4979.9041,25.5677-1.2275A11.3483,11.3483,0,0,0,52.11,68.3881C29.46,75.0113,4.2319,68.91,20.4415,63.53"/><path class="cls-2" d="M39.74,45.7575c4.616,5.3145-1.2128,10.0968-1.2128,10.0968s11.7208-6.0506,6.338-13.6274C39.8376,35.161,35.9822,31.65,56.8535,19.5457c0,0-32.761,8.1822-17.1137,26.2118"/><path class="cls-1" d="M64.5167,81.7573s2.7063,2.23-2.98,3.9549c-10.8134,3.2758-45.0064,4.265-54.5051.1306-3.4145-1.4855,2.9887-3.5469,5.0029-3.9794a12.9849,12.9849,0,0,1,3.301-.3707c-3.7973-2.675-24.5442,5.2526-10.5384,7.5229,38.1959,6.1943,69.6275-2.7893,59.72-7.2583"/><path class="cls-1" d="M24.4892,52.6748S7.0965,56.8058,18.33,58.306c4.7432.635,14.1985.4913,23.0059-.2466,7.1979-.6072,14.4255-1.8981,14.4255-1.8981a30.5308,30.5308,0,0,0-4.3743,2.3407C33.7251,63.1472-.3947,60.9862,9.4279,56.2348a32.91,32.91,0,0,1,15.0613-3.56"/><path class="cls-1" d="M55.69,70.1147c17.9543-9.33,9.6529-18.2955,3.8587-17.0876a13.44,13.44,0,0,0-2.0534.5517,3.2715,3.2715,0,0,1,1.5342-1.1834c11.4628-4.03,20.2785,11.8859-3.7,18.19a1.5635,1.5635,0,0,0,.3608-.47"/><path class="cls-2" d="M44.865,0s9.9433,9.9467-9.4309,25.2419C19.898,37.5113,31.8914,44.507,35.4277,52.5c-9.0687-8.1822-15.7239-15.385-11.2591-22.0887C30.7219,20.5708,48.8769,15.8,44.865,0"/><path class="cls-1" d="M26.2535,95.3961c17.2339,1.1032,43.6984-.6121,44.3252-8.7666,0,0-1.2048,3.0913-14.2429,5.5463-14.7094,2.7682-32.8515,2.445-43.6117.6709,0,0,2.2027,1.8231,13.5294,2.5494"/></g></g></svg>