<svg xmlns="http://www.w3.org/2000/svg" viewBox="0 0 513.12 93.42"><defs><style>.cls-1{fill:#fff;}</style></defs><title>자산 18</title><g id="레이어_2" data-name="레이어 2"><g id="Layer_2" data-name="Layer 2"><path class="cls-1" d="M498.19,0c-4.29,0-8.25,1.82-10.39,4.79l-41,63.84a12.84,12.84,0,0,1-10.4,4.79H76.34c-4.29,0-8.25-1.83-10.39-4.79L25,4.79C22.84,1.82,18.88,0,14.59,0H0C4.29,0,8.25,1.82,10.39,4.79L66,88.63c2.14,3,6.1,4.79,10.39,4.79h360.1a12.84,12.84,0,0,0,10.4-4.79L502.73,4.79c2.14-3,6.1-4.79,10.39-4.79Z"/></g></g></svg>