<?xml version="1.0" encoding="UTF-8" standalone="no"?>
<svg
   xmlns:dc="http://purl.org/dc/elements/1.1/"
   xmlns:cc="http://creativecommons.org/ns#"
   xmlns:rdf="http://www.w3.org/1999/02/22-rdf-syntax-ns#"
   xmlns:svg="http://www.w3.org/2000/svg"
   xmlns="http://www.w3.org/2000/svg"
   xmlns:sodipodi="http://sodipodi.sourceforge.net/DTD/sodipodi-0.dtd"
   xmlns:inkscape="http://www.inkscape.org/namespaces/inkscape"
   viewBox="0 0 514 94.000002"
   version="1.1"
   id="svg6711"
   sodipodi:docname="line2.svg"
   width="514"
   height="94"
   inkscape:version="0.92.4 (5da689c313, 2019-01-14)">
  <metadata
     id="metadata6715">
    <rdf:RDF>
      <cc:Work
         rdf:about="">
        <dc:format>image/svg+xml</dc:format>
        <dc:type
           rdf:resource="http://purl.org/dc/dcmitype/StillImage" />
        <dc:title>자산 18</dc:title>
      </cc:Work>
    </rdf:RDF>
  </metadata>
  <sodipodi:namedview
     pagecolor="#ffffff"
     bordercolor="#666666"
     borderopacity="1"
     objecttolerance="10"
     gridtolerance="10"
     guidetolerance="10"
     inkscape:pageopacity="0"
     inkscape:pageshadow="2"
     inkscape:window-width="2560"
     inkscape:window-height="1380"
     id="namedview6713"
     showgrid="false"
     inkscape:pagecheckerboard="true"
     inkscape:showpageshadow="false"
     inkscape:zoom="0.60609605"
     inkscape:cx="253.26019"
     inkscape:cy="46.709999"
     inkscape:window-x="0"
     inkscape:window-y="31"
     inkscape:window-maximized="1"
     inkscape:current-layer="svg6711" />
  <defs
     id="defs6703">
    <style
       id="style6701">.cls-1{fill:#fff;}</style>
  </defs>
  <title
     id="title6705">자산 18</title>
  <g
     id="레이어_2"
     data-name="레이어 2"
     transform="matrix(1.001715,0,0,1.006144,-3.9999994e-7,2.2974987e-6)">
    <g
       id="Layer_2"
       data-name="Layer 2">
      <path
         class="cls-1"
         d="m 498.19,0 c -4.29,0 -8.25,1.82 -10.39,4.79 l -41,63.84 a 12.84,12.84 0 0 1 -10.4,4.79 H 76.34 c -4.29,0 -8.25,-1.83 -10.39,-4.79 L 25,4.79 C 22.84,1.82 18.88,0 14.59,0 H 0 C 4.29,0 8.25,1.82 10.39,4.79 L 66,88.63 c 2.14,3 6.1,4.79 10.39,4.79 h 360.1 a 12.84,12.84 0 0 0 10.4,-4.79 L 502.73,4.79 c 2.14,-3 6.1,-4.79 10.39,-4.79 z"
         id="path6707"
         inkscape:connector-curvature="0"
         style="fill:#ffffff" />
    </g>
  </g>
</svg>
