<svg xmlns="http://www.w3.org/2000/svg" width="44.9739" height="55.2295" viewBox="0 0 44.9739 55.2295"><defs><style>.cls-1{fill:#a7aaab;}</style></defs><title>mac-logo</title><g id="Layer_2" data-name="Layer 2"><g id="Layer_1-2" data-name="Layer 1"><path class="cls-1" d="M37.5629,29.3369c-.0639-6.9879,5.7082-10.343,5.9608-10.4994A12.928,12.928,0,0,0,33.4329,13.35c-4.304-.4336-8.402,2.5377-10.5772,2.5377-2.1823,0-5.5518-2.4666-9.1131-2.3955a13.5169,13.5169,0,0,0-11.43,6.9165c-4.8693,8.452-1.2511,20.9773,3.5044,27.83,2.3171,3.3552,5.0787,7.1227,8.7076,6.9877,3.5045-.1351,4.8267-2.2606,9.0562-2.2606,4.2225,0,5.4167,2.2606,9.12,2.2037,3.76-.0782,6.1489-3.4334,8.4449-6.7886a30.636,30.636,0,0,0,3.8283-7.862A12.1836,12.1836,0,0,1,37.5629,29.3369Z"/><path class="cls-1" d="M30.6039,8.8145A12.1117,12.1117,0,0,0,33.4794,0a12.3658,12.3658,0,0,0-8.1287,4.18c-1.7913,2.0756-3.3623,5.3882-2.9358,8.5515C25.5071,12.9659,28.6811,11.1532,30.6039,8.8145Z"/></g></g></svg>