<?xml version="1.0" encoding="utf-8"?>
<!-- Generator: Adobe Illustrator 25.0.1, SVG Export Plug-In . SVG Version: 6.00 Build 0)  -->
<svg version="1.1" id="Layer_1" xmlns="http://www.w3.org/2000/svg" xmlns:xlink="http://www.w3.org/1999/xlink" x="0px" y="0px"
	 viewBox="0 0 640 400" style="enable-background:new 0 0 640 400;" xml:space="preserve">
<style type="text/css">
	.st0{fill:#F79421;}
	.st1{fill:#F3F3F3;}
	.st2{fill:none;stroke:#FFFFFF;stroke-width:4;}
	.st3{font-family:'Roboto-Regular';}
	.st4{font-size:30.5496px;}
</style>
<g>
	<path id="rect8604" class="st0" d="M374.52,148.31c0.01,7.45,6.05,13.5,13.5,13.5c-7.45,0.01-13.5,6.05-13.5,13.5
		c-0.01-7.45-6.05-13.5-13.5-13.5C368.47,161.8,374.51,155.76,374.52,148.31z"/>
	<path class="st1" d="M398.83,195.9c-4.74-8.84-21.38-7.38-32.78-11.9c-9.97-3.96-31.15-16.57-37.25-17.74
		c-31.23-6.02-47.95,0.38-72.21,0.38c-6.75,0-8.19,8.44-10.56,17.28v0c-2.4,9.3-11.52,36.64,4.8,36.64h0.5
		c-0.41-1.28-0.63-2.63-0.63-4.04c0-7.35,5.96-13.31,13.31-13.31s13.31,5.96,13.31,13.31c0,1.41-0.22,2.77-0.63,4.04h62.69v0.01
		h19.03c-0.41-1.28-0.63-2.64-0.63-4.05c0-7.35,5.96-13.31,13.31-13.31s13.31,5.96,13.31,13.31c0,1.41-0.22,2.77-0.63,4.05h17.95
		C401.71,220.57,403.89,205.34,398.83,195.9z M273.09,181.41l0.19-9.41l24.67-1.73l0.96,13.54L273.09,181.41z M342.5,187.93
		l-34.94-2.88c0,0-1.25-11.15-1.63-15.36c8.76,0,27.24-0.22,35.33,8.83C343.36,180.89,342.5,187.93,342.5,187.93z"/>
	<circle id="circle8472-2" class="st2" cx="264.01" cy="216.52" r="9.33"/>
	<circle id="circle8597" class="st2" cx="371.08" cy="216.52" r="9.33"/>
	<path id="path5302" class="st0" d="M214.27,170.33c0.01,7.45,6.05,13.5,13.5,13.5c-7.45,0.01-13.5,6.05-13.5,13.5
		c-0.01-7.45-6.05-13.5-13.5-13.5C208.22,183.83,214.26,177.79,214.27,170.33z"/>
	<path id="path5304" class="st0" d="M292.24,131.35c0.01,7.45,6.05,13.5,13.5,13.5c-7.45,0.01-13.5,6.05-13.5,13.5
		c-0.01-7.45-6.05-13.5-13.5-13.5C286.19,144.84,292.23,138.8,292.24,131.35z"/>
	<path id="path5306" class="st0" d="M426.49,187.29c0.01,7.45,6.05,13.5,13.5,13.5c-7.45,0.01-13.5,6.05-13.5,13.5
		c-0.01-7.45-6.05-13.5-13.5-13.5C420.44,200.78,426.49,194.74,426.49,187.29z"/>
</g>
<text transform="matrix(1 0 0 1 248.6187 260.0703)" class="st1 st3 st4">NO IMAGE</text>
</svg>
