<svg id="레이어_1" data-name="레이어 1" xmlns="http://www.w3.org/2000/svg"  viewBox="0 0 133.7666 33.8293"><defs><style>.cls-1{fill:#fff;}</style></defs><title>raon</title><circle class="cls-1" cx="7.7854" cy="7.7854" r="7.7854"/><path class="cls-1" d="M275.5951,237.9206a14.4381,14.4381,0,1,0,14.2967,14.4365A14.3676,14.3676,0,0,0,275.5951,237.9206Zm0,23.2125a8.78,8.78,0,1,1,8.4931-8.776A8.6381,8.6381,0,0,1,275.5951,261.1331Z" transform="translate(-183.5864 -232.9662)"/><rect class="cls-1" x="56.9286" y="22.2218" width="14.5315" height="4.8127"/><path class="cls-1" d="M248.2542,246.69l-1.1207,2.8376-7.4978,16.9841h-6.2232l12.2847-26.9313a2.8321,2.8321,0,0,1,5.1564,0l12.2848,26.9313h-6.223l-7.498-16.9841-1.1208-2.8376Z" transform="translate(-183.5864 -232.9662)"/><path class="cls-1" d="M298.3774,239.0425a2.8313,2.8313,0,0,0-5.0884,1.7091v25.76h5.6621V252.357l-.0282-4.2446h.0282l3.0654,4.2446,10.2483,13.3162a2.831,2.831,0,0,0,5.0882-1.7089v-25.76h-5.6621V252.357l.0282,4.2465h-.0282l-3.0654-4.2465Z" transform="translate(-183.5864 -232.9662)"/><path class="cls-1" d="M222.4547,252.1667l5.0127,5.4524,7.65,8.8929h-7.5081l-11.1726-13.7666a1.2554,1.2554,0,0,1-.293-.8124,1.2734,1.2734,0,0,1,1.2739-1.2731h7.6439a3.68,3.68,0,1,0,0-7.36H191.3717a2.5479,2.5479,0,0,1,0-5.0957h34.2555a8.8478,8.8478,0,0,1,8.9178,8.7761,8.6837,8.6837,0,0,1-2.8308,6.4122,8.7967,8.7967,0,0,1-6.2992,2.15" transform="translate(-183.5864 -232.9662)"/></svg>