<svg xmlns="http://www.w3.org/2000/svg" viewBox="0 0 133.77 33.83"><defs><style>.cls-1{fill:#fff;}</style></defs><title>자산 16</title><g id="레이어_2" data-name="레이어 2"><g id="Layer_2" data-name="Layer 2"><circle class="cls-1" cx="7.79" cy="7.79" r="7.79"/><path class="cls-1" d="M92,5a14.44,14.44,0,1,0,14.3,14.44A14.37,14.37,0,0,0,92,5Zm0,23.22a8.64,8.64,0,0,1-8.49-8.78,8.49,8.49,0,1,1,17,0A8.64,8.64,0,0,1,92,28.17Z"/><rect class="cls-1" x="56.93" y="22.22" width="14.53" height="4.81"/><path class="cls-1" d="M64.67,13.72l-1.12,2.84-7.5,17H49.83L62.11,6.61a2.83,2.83,0,0,1,5.16,0L79.55,33.55H73.33l-7.5-17-1.12-2.84Z"/><path class="cls-1" d="M114.79,6.08a2.83,2.83,0,0,0-5.09,1.71V33.55h5.66V19.39l0-4.24h0l3.07,4.24,10.25,13.32A2.83,2.83,0,0,0,133.77,31V5.24H128.1V19.39l0,4.25h0L125,19.39Z"/><path class="cls-1" d="M38.87,19.2l5,5.45,7.65,8.9H44L32.85,19.78a1.24,1.24,0,0,1-.29-.81,1.27,1.27,0,0,1,1.27-1.28h7.64a3.68,3.68,0,1,0,0-7.36H7.79a2.55,2.55,0,1,1,0-5.09H42A8.85,8.85,0,0,1,51,14a8.72,8.72,0,0,1-2.83,6.42,8.83,8.83,0,0,1-6.3,2.15"/></g></g></svg>