<svg xmlns="http://www.w3.org/2000/svg" width="95" height="69.4504" viewBox="0 0 95 69.4504"><defs><style>.cls-1{fill:#2e3192;}.cls-2{fill:#ccc;}.cls-3{fill:#ed1c24;}.cls-4{fill:#f7931e;}.cls-5{fill:#39b54a;}.cls-6{fill:#4d4d4d;}</style></defs><title>script-download</title><g id="Layer_2" data-name="Layer 2"><g id="Layer_1-2" data-name="Layer 1"><path class="cls-1" d="M95,2.9082A2.9082,2.9082,0,0,0,92.0918,0H2.9082A2.9082,2.9082,0,0,0,0,2.9082V8.9849H95Z"/><path class="cls-2" d="M0,8.9849V66.5423A2.9081,2.9081,0,0,0,2.9082,69.45H92.0918A2.9081,2.9081,0,0,0,95,66.5423V8.9849Z"/><circle class="cls-3" cx="7.0967" cy="4.4924" r="2.3044"/><circle class="cls-4" cx="15.1749" cy="4.4924" r="2.3044"/><circle class="cls-5" cx="23.0108" cy="4.4924" r="2.3044"/><path class="cls-6" d="M28.1543,44.0407a2.498,2.498,0,0,0,1.7158-.6026,2.0575,2.0575,0,0,0,.7266-1.4883h2.6015a4.0469,4.0469,0,0,1-.7158,2.1416,4.6906,4.6906,0,0,1-1.8174,1.5733,5.4138,5.4138,0,0,1-2.4765.5791,5.24,5.24,0,0,1-4.09-1.67,6.6244,6.6244,0,0,1-1.5107-4.6114v-.2842a6.5147,6.5147,0,0,1,1.499-4.4926,5.1931,5.1931,0,0,1,4.09-1.687A5.0516,5.0516,0,0,1,31.75,34.7765a4.5808,4.5808,0,0,1,1.4482,3.3569H30.5967a2.524,2.524,0,0,0-.7217-1.7383,2.3214,2.3214,0,0,0-1.7207-.6816,2.4266,2.4266,0,0,0-2.0674.9717,4.9452,4.9452,0,0,0-.7383,2.9472v.4434a5.0388,5.0388,0,0,0,.7207,2.9815A2.4285,2.4285,0,0,0,28.1543,44.0407Z"/><path class="cls-6" d="M46.08,42.2116l1.9541-8.4859h2.6924L47.375,46.0172H45.1035l-2.6357-8.44-2.59,8.44H37.6055L34.2432,33.7257h2.6923l1.9883,8.395,2.5215-8.395h2.0791Z"/><path class="cls-6" d="M59.6328,38.7916l-7.0205-2.5781V33.4987l9.8154,4.2255v2.1924l-9.8154,4.2256V41.4274Z"/><path class="cls-6" d="M73.7188,48.1871H63.3018v-2.17h10.417Z"/></g></g></svg>